<svg id="Layer_1" data-name="Layer 1" xmlns="http://www.w3.org/2000/svg" viewBox="0 0 512 512"><path d="M440.46,309.25A192.35,192.35,0,0,1,278.37,447.39a200,200,0,0,1-23.43,1.39c-106.42,0-193-86.56-193-192.95s86.59-193,193-193,193,86.6,193,193a193.86,193.86,0,0,1-7.47,53.42M254.94,30.81c-124.07,0-225,100.94-225,225s100.94,225,225,225a227.49,227.49,0,0,0,27.24-1.65A224.66,224.66,0,0,0,479.93,255.83c0-124.08-100.93-225-225-225"/><path d="M343.3,328.17a125,125,0,0,1-176.74.06,16,16,0,1,0-22.65,22.61,157,157,0,0,0,222,0,16,16,0,1,0-22.65-22.64"/><path d="M348.92,184a34,34,0,1,0,34,34,34,34,0,0,0-34-34"/><path d="M195,218a34,34,0,1,0-34,34,34,34,0,0,0,34-34"/></svg>