<svg id="Layer_1" data-name="Layer 1" xmlns="http://www.w3.org/2000/svg" viewBox="0 0 512 512"><path d="M315.88,379.34c7.78-4.65,15.13-9,23-13.72l-23-13.68Zm40.73-143.41,1.05.22c2.77-4.94,5.8-9.76,8.2-14.88a24.07,24.07,0,0,0,2.58-9.69c.17-38.06.11-76.14.09-114.22,0-10.08-4.42-14.71-14.11-14.71q-29.66,0-59.26,0c-1.26,0-2.52.17-3.78.25V95.3h4.92q25.9,0,51.8,0c5.84,0,8.2,2.4,8.47,8.41.08,1.35,0,2.71,0,4.08V235.93ZM145.88,70.84v35.88H276.75V71.3a5.65,5.65,0,0,0-1.07-.39L245,70.84c-6.47,0-7.92-1.07-9.92-7.2-3.57-11-12.84-18.12-23.66-18.2s-20.37,7.18-24,18.38c-1.89,5.83-3.47,7-9.6,7H145.88M350.45,355.49c1-1.68,1.85-3.07,2.65-4.48q33.42-59.79,66.83-119.57,17.86-32,35.66-63.93c4.88-8.8,2.73-16.77-5.7-22-1.13-.71-2.28-1.35-3.42-2-11-6.55-18-4.6-24.31,6.73Q381.53,223,340.87,295.7c-7.52,13.45-15,26.9-22.65,40.56,10.82,6.47,21.43,12.78,32.23,19.23M131.08,82.63c-21.31,0-42.22,0-63.15,0-9.46,0-14,4.73-14,14.44q0,177.38,0,354.79c0,9.75,4.54,14.59,13.87,14.59q143.43,0,286.84,0c9.39,0,13.89-4.77,13.89-14.53q0-46.74,0-93.45v-3.82a116.25,116.25,0,0,0-9.67,15.26c-1.05,2-2.16,4.28-2.18,6.43-.17,22.08-.09,44.15-.09,66.23,0,9.46-1.72,11.23-10.67,11.23H76.69a37.69,37.69,0,0,1-4.39-.07,6.49,6.49,0,0,1-6.11-6.05,46.29,46.29,0,0,1-.19-5.9q0-167.15,0-334.35c0-1.22,0-2.42,0-3.64.19-6.09,2.48-8.49,8.34-8.49,14.35,0,28.69,0,43,0h13.7ZM80.56,110V439H341.88V380.89c-7.29,4.35-14.25,8.16-20.87,12.53a34.11,34.11,0,0,1-20.45,5.8c-31.77-.55-63.56-.23-95.32-.23a42.87,42.87,0,0,1-4.39-.07c-4.18-.48-7-3.44-7.12-7.24s3-7.15,7.29-7.59c1.3-.11,2.64,0,3.95,0q45.45,0,90.91,0h5V365.3h-5.65q-45,0-90,0a40.1,40.1,0,0,1-4.39-.1c-4.21-.43-7-3.33-7.08-7.19s3.06-7.15,7.35-7.52c1.3-.11,2.63,0,3.95,0H301.3c0-2.06.11-3.42,0-4.74-.61-6,1.2-11.1,4.14-16.25,11.75-20.53,23.24-41.21,34.67-61.95a17.54,17.54,0,0,0,2-8.05q.17-72.12.09-144.25v-5.1H291.57c-1.47,11.11-2,11.54-13,11.54H163.09c-8.05,0-16.1.06-24.15,0-4.66-.06-7.31-2.79-7.61-7.52-.1-1.3-.14-2.62-.19-4.08Zm50.58-41.9c.07-1.43.13-2.44.17-3.47.25-5.92,2.67-8.3,8.55-8.32,10.55,0,21.08-.08,31.63.06,2.35,0,3.51-.73,4.63-2.94C183.45,39,195.07,31.1,211,31c16.12-.11,27.91,7.73,35.32,22.4,1.27,2.5,2.69,3,5.09,3,10-.1,19.9,0,29.86,0,7.78,0,9.59,1.77,9.88,9.63,0,.57.13,1.15.25,2.16h4.83c19.61,0,39.26.51,58.85-.19,13-.46,28,9.67,27.84,28.71-.31,29.17-.08,58.36-.08,87.55v6.09c1.22-1.77,1.91-2.61,2.43-3.55,8.43-15,16.8-30.07,25.26-45.06,9.38-16.72,25.69-21.22,42-11.58a66.91,66.91,0,0,1,9.6,6.33c11,9.39,13.39,24.9,5.83,38.5q-28.28,50.85-56.74,101.61c-8.77,15.71-17.61,31.35-26.21,47.15a17.78,17.78,0,0,0-2.06,8.05c-.12,40.08-.06,80.15-.1,120.23,0,15-7.34,25.15-20.32,28.39a25.66,25.66,0,0,1-6.06.61q-145.19,0-290.36,0c-14.79,0-25.78-11-26.31-26.29-.06-1.2-.06-2.42-.06-3.62q0-176.49,0-353c0-7.13.94-13.83,5.42-19.57,5.27-6.74,12-10.42,20.47-10.4q30.32,0,60.62,0Z"/><path d="M254.67,258.93h49.15c1,0,2,0,3.07,0,5.3.19,8.74,3.13,8.74,7.48s-3.5,7.46-8.74,7.48q-24.78.06-49.59,0c-17.84,0-35.67,0-53.51,0-1.74,0-4,.23-5.08-.74-2-1.8-4.27-4.24-4.75-6.76-.61-3.3,1.64-6,5.06-6.88a20.45,20.45,0,0,1,5.19-.56q25.23-.06,50.46,0"/><path d="M254.27,307.55c-17,0-33.94,0-50.9,0-1.85,0-4.29.08-5.42-1-1.85-1.77-4.1-4.66-3.87-6.79.26-2.37,2.86-4.83,5-6.45,1.29-1,3.66-.63,5.53-.63q50-.06,100.05,0c7.29,0,10.95,2.5,11,7.44s-3.72,7.5-10.9,7.5H254.27"/><path d="M255.18,201.31h49.57c1.47,0,2.94,0,4.39.13,4,.38,6,3,6.43,6.79.43,3.52-2.54,7.06-6.13,7.66a24.77,24.77,0,0,1-3.95.09H203.71c-.44,0-.88,0-1.32,0-5.28-.08-8.68-3-8.64-7.44s3.16-7.15,8.35-7.19c10.67-.1,21.35,0,32,0h21.06"/><path d="M254.71,182.39c-17.55,0-35.11,0-52.64,0-5.63,0-9.79-4.54-7.92-9.06.92-2.25,3.51-4,5.73-5.33,1.35-.8,3.43-.34,5.19-.34q49.56,0,99.15,0c1.45,0,2.92,0,4.37.1,4.19.4,7,3.34,7,7.21a7.45,7.45,0,0,1-7.41,7.38c-5.83.17-11.69.06-17.53.06h-36"/><path d="M128.82,381.58l27-25.24c1.29-1.2,2.53-2.5,3.91-3.62,3.66-3,7.34-2.94,10.19.17s2.57,7.57-.84,10.84q-17.26,16.39-34.69,32.6c-3.87,3.61-7.48,3.44-11.2-.3-4.6-4.64-9.16-9.31-13.62-14.08-3.41-3.65-3.51-7.69-.5-10.82s7.14-2.94,10.54.46c3.14,3.15,6.06,6.52,9.25,10"/><path d="M128.54,199.74c9.9-9.29,19-17.8,28.07-26.33,1.08-1,2.15-2,3.3-3,3.34-2.73,7.17-2.57,9.86.31s2.75,7.3-.34,10.53c-2.69,2.77-5.59,5.32-8.42,7.95q-13,12.17-26,24.35c-4.79,4.44-7.88,4.39-12.46-.27-4.27-4.35-8.53-8.72-12.7-13.16-3.71-3.95-3.92-7.94-.77-11.16,2.94-3,7.31-2.83,10.84.86,3,3.09,5.67,6.46,8.64,9.9"/><path d="M128.83,290.14c9.23-8.68,17.89-16.81,26.55-24.92,1.51-1.43,3-2.9,4.6-4.19,3.38-2.73,7.16-2.52,9.87.42s2.61,7.28-.48,10.53c-1.74,1.83-3.66,3.47-5.51,5.21q-14.46,13.56-28.93,27.11c-4.62,4.31-7.78,4.31-12.13-.1s-8.76-8.93-13-13.47c-3.67-3.89-3.84-8-.63-11.18,2.86-2.84,7.19-2.67,10.55.71,3,3.05,5.87,6.31,9.14,9.88"/><path d="M211.2,56.46c4.56,0,8.74,4.27,8.7,9s-4.3,9-8.82,8.89-8.39-4.23-8.49-8.77,4-9.06,8.61-9.1"/></svg>