<svg id="Layer_1" data-name="Layer 1" xmlns="http://www.w3.org/2000/svg" viewBox="0 0 512 512"><path d="M375.76,68.33V37.41H316.29v76.74c11.64,1.65,23.17,2.5,34.37,5C416.36,133.88,466,187.53,478.27,256.4c15.19,85.42-34.5,170.68-114.07,195.32-43.07,13.35-84.72,9.19-124.75-12.15-1.95-1-3.88-2.1-5.74-3.3-4.18-2.72-5.47-7.33-3.24-11.23s6.3-4.75,10.63-2.63c8.17,4,16.14,8.55,24.58,11.76,69.32,26.36,148.09-5.49,182.57-73.46,1.86-3.68,1.94-6.34-.58-9.62-2.88-3.79-5.3-8-7.83-12.14a9.28,9.28,0,0,0-8.57-4.87c-5.93.06-11.89-.3-17.8.15a19.4,19.4,0,0,0-8.74,2.89c-10.74,6.9-22.23,9.24-34.82,8.66-15.6-.69-31.23-.09-46.85-.21-5.07,0-8.46-3.31-8.61-7.78s3.15-7.76,8.19-8.25c1.22-.11,2.48-.05,3.74-.05,16.55,0,33.11-.19,49.67.09,6.28.09,12.15-.68,17.34-4.41,13.52-9.75,28.82-6.67,43.6-6.24,6.26.17,11.17,4.61,14.79,10.09,1.76,2.68,3.47,5.38,5.92,9.18,13.58-45,10.79-87.41-11.26-127.31C417.82,159.08,373.68,133.35,316,130.6c0,2.42,0,4.31,0,6.19,0,6.32-2.57,9.63-7.39,9.69S301,143.2,301,137q0-25.87,0-51.77,0-27.36,0-54.73c0-6.56,2.41-9,8.75-9q36.12,0,72.17,0c6.51,0,9,2.63,9,9.45q0,21.75,0,43.49c0,6.88-2.49,9.56-8.92,9.58q-24.81,0-49.66,0c-5.64,0-8.79-2.78-8.86-7.65-.1-5.14,3.05-8,9-8q19.21,0,38.42,0Z"/><path d="M285.06,128.71c-.07,4.67-3.69,6.52-8,7.72a143.48,143.48,0,0,0-56,30.15q-33.48,28.81-47.39,71.69c-.3.92-.54,1.87-.9,2.75-1.82,4.69-5.49,6.64-9.62,5.18s-6-5.4-4.65-10.18A166.22,166.22,0,0,1,185.61,182c23.1-30.62,52.63-51.21,88.8-61.28,5.93-1.65,10.58,1.56,10.65,8"/><path d="M54.88,358.24c7.72,2.68,17,5.79,26.19,9.23,2.53.93,3.86.13,5.66-1.54,13.43-12.64,24.94-26.76,32.63-44,1.57-3.51,3.71-6.75,5.55-10.14.54-1,.94-2.16,1.52-3.55-13.78-.6-26.57,2-36.29,11.38-12.52,12.16-23.7,25.82-35.26,38.65m150.86,32.44c-4.67,2.77-8.45,5.38-12.52,7.4-16.62,8.22-30.55,20-42.55,34.36-1,1.18-2.27,3.18-1.93,4.35,3,10.18,6.38,20.27,10.07,31.72,13.27-14.68,26.46-28.07,38.21-42.69,7.69-9.57,9.49-21.92,8.72-35.14m-47.57,11.57a38.14,38.14,0,0,1-4.67-3c-8.32-7.33-16.74-14.55-24.79-22.16-3-2.81-2.9-6.77-.3-10.18a6.8,6.8,0,0,1,8.84-2.21c1.76.8,3.2,2.55,4.57,4.07a95.19,95.19,0,0,0,27.53,21.56,6,6,0,0,0,6.86-.3c4.46-2.94,9.21-5.46,13.8-8.21,41.74-24.87,69.73-61.21,83.44-109.28a153.31,153.31,0,0,0,6.26-42.45c-11.4,2-22.4,3.13-33,5.92-48.56,12.79-85.69,41.89-110.4,87.29-10.69,19.63-21.6,38.73-38.44,53.38-.24.22-.6.43-.63.69-.25,1.54-1,3.45-.45,4.58a91.51,91.51,0,0,0,38.4,40.07c1,.56,3.2.5,3.95-.25,6.34-6.24,12.47-12.71,19.07-19.55m-30-110c6.15,1.82,10.93-1.87,16-8.06,31.1-37.78,70.5-60.3,117.86-67.28A236.1,236.1,0,0,1,286.26,215c6.43-.28,9.2,2.7,9.09,9.39-1.2,58.8-22.86,108-65,146.86-6.73,6.18-9.69,11.88-9.26,21.24,1,21.79-6.77,40.26-21.79,55.54-12.39,12.64-24.52,25.56-36.79,38.31-6.6,6.84-12.26,5.4-15.22-3.83-4.28-13.22-8.44-26.47-12.92-39.62a10.7,10.7,0,0,0-4.43-5.49C108.78,425.8,92.77,409.07,81.8,387a9.07,9.07,0,0,0-4.59-4.08c-12.94-4.73-25.95-9.14-38.93-13.69-8.19-2.89-9.62-9-3.52-15.43,13-13.62,26-27.25,39.09-40.75,14.57-15,32.35-21.51,54.3-20.85"/><path d="M47.38,460.31c-2.3-2.12-5.49-3.7-6.11-6-.69-2.59.07-6.68,1.78-8.68,4.89-5.87,10.58-11,16-16.45,4.59-4.63,9.13-9.3,13.78-13.89,3.88-3.85,8.42-4,11.55-.64s2.85,8.08-1,12.06Q68.74,441.51,54,456.14c-1.59,1.56-3.83,2.44-6.64,4.17"/><path d="M95.85,456.77c-1.68,2.91-2.55,5.24-4.07,6.87-7.48,8-15.09,15.93-22.76,23.79-3.81,3.9-8.36,4.05-11.53.66s-2.81-7.93.71-11.68c7.75-8.22,15.58-16.34,23.42-24.47,2.44-2.5,5.55-3.68,8.46-1.75,2.25,1.48,3.75,4.18,5.77,6.58"/><path d="M211,295.69c0,4.93-2.89,8.12-7.35,8.19s-7.67-3.26-7.63-7.89,3.46-8.25,7.51-8.33c4.45-.07,7.49,3.21,7.47,8"/><path d="M188.54,319.26c0,4.89-3,8.06-7.44,8.08s-7.63-3.38-7.52-8c.09-4.48,3.56-8.21,7.61-8.21,4.46,0,7.41,3.28,7.35,8.14"/><path d="M306.65,239.72c14.62,2.8,25.42-2.47,29.27-14.21a24.29,24.29,0,0,0-11.36-29c-10.62-5.74-21.79-1.44-30.94,12-4.41-1.85-8.85-3.69-13.26-5.53,5.27-18,28-29.23,45.62-22.72,21.13,7.8,31.67,30.52,23.81,51.28-7.72,20.42-30,30.81-48.58,22.33l5.44-14.14"/><path d="M308,396.94c4.2,0,8.17-4.26,8.06-8.61-.09-4.18-3.84-8.14-7.87-8.27s-8.25,3.92-8.31,8.33,3.92,8.57,8.12,8.55m-24.51-8.68c0-14.22,10.91-25.33,24.71-25.28,13.64.06,24.31,11.36,24.27,25.75-.06,14.21-10.95,25.35-24.73,25.29-13.62-.06-24.3-11.4-24.25-25.76"/><path d="M253.68,184.25a5.8,5.8,0,0,0,5.38-5.72,5.88,5.88,0,0,0-5.25-5.53c-2.79-.1-5.49,2.62-5.53,5.57a5.79,5.79,0,0,0,5.4,5.68m-16.33-5.78c0-9.47,7.28-16.87,16.46-16.84S270,169.21,270,178.79s-7.28,16.88-16.47,16.86-16.2-7.61-16.16-17.18"/><path d="M390.4,259.56c.15,12.62,10.52,23.29,22.56,23.21s22.37-10.84,22.39-23.4c0-12.75-10.63-23.7-22.78-23.44S390.25,247,390.4,259.56m22.67-39.28c20.74,0,37.3,17.42,37.3,39.15s-16.77,39.07-37.93,39c-20.61-.08-37.09-17.63-37-39.41,0-21.57,16.78-38.78,37.67-38.74"/></svg>