<svg id="Layer_1" data-name="Layer 1" xmlns="http://www.w3.org/2000/svg" viewBox="0 0 512 512"><path d="M216.85,58.3a11.74,11.74,0,1,0,0,23.46h78.32a11.74,11.74,0,1,0,0-23.46ZM198.19,303c25.81,0,51.87,9.24,71.36,25.62l1.41,1.17a108.9,108.9,0,0,0,68.25,24,102.59,102.59,0,0,0,14.33-.93L281.13,238.41V109.06H230.89V238.41L189.8,303.28q4.19-.31,8.39-.31m-28.78,32.58L119,415.19a24,24,0,0,0-4.57,14.07c0,13.49,11.27,24.44,25.12,24.44H372.44c13.85,0,25.12-10.95,25.12-24.44a25.19,25.19,0,0,0-5-14.74L369.28,377.7c-37.75,8.42-78.82.12-110-22.27l-7.83-6a81.9,81.9,0,0,0-52.77-19.18,92.55,92.55,0,0,0-29.26,5.33M372.44,481H139.58c-29.3,0-53.18-23.23-53.18-51.74a50.7,50.7,0,0,1,9.5-29.5L202.83,230.65V106.57A39.08,39.08,0,0,1,176.73,70c0-21.51,18-39,40.12-39h78.32c22.13,0,40.12,17.51,40.12,39a39.06,39.06,0,0,1-26.12,36.55V230.65L416.36,400.07a50.68,50.68,0,0,1,9.24,29.19c0,28.51-23.85,51.74-53.16,51.74"/></svg>