<svg id="Layer_1" data-name="Layer 1" xmlns="http://www.w3.org/2000/svg" viewBox="0 0 512 512"><path d="M399.16,344.76a18.62,18.62,0,1,0-18.64-18.63,18.62,18.62,0,0,0,18.64,18.63M286.88,386.5a8.77,8.77,0,0,0,0,12.38,86.09,86.09,0,0,0,121.6,0,8.78,8.78,0,0,0-12.41-12.41,68.45,68.45,0,0,1-96.78,0,8.79,8.79,0,0,0-12.41,0m-9.29-60.37a18.63,18.63,0,1,0,18.61-18.61,18.61,18.61,0,0,0-18.61,18.61M204,354.85a18.63,18.63,0,1,0-18.64-18.64A18.63,18.63,0,0,0,204,354.85m-84.33-18.64a18.62,18.62,0,1,0-18.63,18.64,18.62,18.62,0,0,0,18.63-18.64m81.24,60.35a68.48,68.48,0,0,1-96.78,0A8.78,8.78,0,1,0,91.74,409a86.12,86.12,0,0,0,121.6,0,8.78,8.78,0,1,0-12.41-12.41m-65-278.45a18.63,18.63,0,1,0-18.61,18.64,18.62,18.62,0,0,0,18.61-18.64m84.33,18.64a18.64,18.64,0,1,0-18.64-18.64,18.63,18.63,0,0,0,18.64,18.64M168.75,216a85.77,85.77,0,0,0,60.81-25.17,8.76,8.76,0,1,0-12.39-12.38,68.5,68.5,0,0,1-96.8,0A8.77,8.77,0,0,0,108,190.87,85.79,85.79,0,0,0,168.75,216m156.17-81.68A18.63,18.63,0,1,0,306.31,153a18.62,18.62,0,0,0,18.61-18.64m81.26,60.35a68.5,68.5,0,0,1-96.81,0A8.76,8.76,0,0,0,297,207.11a86.08,86.08,0,0,0,121.57,0,8.76,8.76,0,1,0-12.38-12.41m21.68-60.35A18.63,18.63,0,1,0,409.25,153a18.61,18.61,0,0,0,18.61-18.64m35.62,20.75a105.18,105.18,0,0,1-52.26,91,122.68,122.68,0,0,0-107-.16,105.3,105.3,0,0,1-38.74-39.67,123.36,123.36,0,0,0,.93-103.89,105.54,105.54,0,0,1,197.07,52.7m-203.6-1.69a105.39,105.39,0,0,1-55.23,92.78,122.57,122.57,0,0,0-100.64.05A105.64,105.64,0,1,1,259.14,140.56a107.61,107.61,0,0,1,.74,12.83M154.22,252.93a105.51,105.51,0,0,1,104.92,92.86,107.81,107.81,0,0,1,.74,12.82A105.68,105.68,0,1,1,154.22,252.93m101.22,35.39a122.71,122.71,0,0,0-33-32.39,123,123,0,0,0,33.18-32.46,123,123,0,0,0,31.65,32.37,122.71,122.71,0,0,0-31.79,32.48m22,70.29a122.7,122.7,0,0,0-11.92-52.84A105.62,105.62,0,1,1,370.6,461.85a108.1,108.1,0,0,1-12.82.77,105.34,105.34,0,0,1-91.49-53.12,122.49,122.49,0,0,0,11.13-50.89M476.21,189.15A123.25,123.25,0,0,0,256.56,84.75,123.21,123.21,0,1,0,86.09,256,123.17,123.17,0,1,0,256.53,427.14,123.17,123.17,0,1,0,428.23,256a123.87,123.87,0,0,0,48-66.87"/></svg>