<svg id="Layer_1" data-name="Layer 1" xmlns="http://www.w3.org/2000/svg" viewBox="0 0 512 512"><path d="M481,154.05c-2.62,3.66-6.2,4.6-10.6,4.52-12.3-.22-24.6,0-36.91-.09-7.81,0-10.9-5.51-7.1-12.42,3.19-5.8,2.37-11.32-2.22-15a10.86,10.86,0,0,0-14.12.27c-4.3,3.67-5,9.09-2,14.68,3.82,7,.78,12.41-7,12.46q-16,.09-32.08,0c-9.33-.07-15.36-6.08-15.44-15.38-.08-10.7-.06-21.39,0-32.08.05-7.85,5.45-10.89,12.42-7.08,5.14,2.82,10,2.47,13.79-1a10.81,10.81,0,0,0,2.76-12.43c-2.49-6-9.64-8.4-15.84-5.3-8.53,4.27-13.27,1.44-13.05-8.11.07-3.34-1-5.19-3.85-6.93-29.55-17.79-61.4-26-95.91-23.5-30.24,2.22-60.09,6.85-89.21,15.42-41.14,12.12-64.37,41.35-75.38,81.23-4,14.55-8.29,28.86-14.49,42.61-2.75,6.11-2.26,7.27,2.44,11.95,3.1,3.09,6.57,5.94,9,9.48,4.57,6.59,5,13.62,1.35,21.13A324.48,324.48,0,0,1,51,287.24c-1.87,2.39-3.44,5-5.51,8,3.44,2.3,6.4,4.39,9.47,6.29,2.23,1.38,4.65,2.47,6.94,3.76,12.42,7,15,17.55,9.83,30.75-1.22,3.11-3,6-4.79,9.4,2.15,1.73,4.36,3.57,6.64,5.31,6.44,4.91,6.88,7.39,2.51,14.31-.46.73-.83,1.51-1.41,2.56,1.06.66,2,1.29,2.94,1.82C87.6,375,92.23,384.34,90,395.6c-1.52,7.83-2.86,15.45.25,23.25,2.88,7.22,8.79,10.57,16.31,8.83,32.09-7.4,62.87-18.93,93.86-29.79a185.25,185.25,0,0,0,25.95-11.48c7-3.75,12.08-9.47,12.49-18.33.22-4.58,3.84-7.1,8.12-6.78s7.18,3.72,7,8.51c-.34,8.92-4.08,16.34-10.46,22.47C233.48,402,220.93,407.11,208,411.55l-19.16,6.58a122.66,122.66,0,0,1,26.09,47.3H384.71c-12.81-20.54-18.46-42.6-22.54-65.26-4.12-22.88-4.55-45.61,1.76-69h-5.6q-76,0-152,0c-12.72,0-21.26-5.57-24.31-16.08a33.07,33.07,0,0,1-1.09-9.1q-.09-94.9,0-189.82c0-16.24,9.13-25.29,25.31-25.29q45.91,0,91.83,0c8.24,0,10.64,2.43,10.64,10.78,0,8.78,0,17.55,0,26.86,10.1-.59,18.6,2.44,24.7,10.58a26,26,0,0,1,5.18,17.71c-.9,14.33-11.3,23.06-29.64,24.68v21.6h21.79c-.15-9.4,2.46-17.78,10.15-23.88a26.19,26.19,0,0,1,18-5.74c14.32.63,22.86,10.65,25,29.91h26.6c8.3,0,10.71,2.42,10.72,10.71q0,46.14,0,92.28c0,15.33-9.17,24.61-24.49,24.8-4.25.05-8.51.19-12.74-.05-3-.18-4.29.76-5.12,3.79a128.5,128.5,0,0,0-3.31,50.88c2.65,20.79,6.81,41.21,15.87,60.3,1.94,4.07,4.6,7.8,6.79,11.76a119.22,119.22,0,0,1,6.24,12c2.21,5.36-.79,10.11-6.61,10.67-4.07.39-8.19.24-12.29.25L211.05,481c-6,0-7.82-1.5-9.57-7.46-3.48-11.82-7.95-23.21-14.71-33.59-1.44-2.21-3-4.37-4.6-6.42-7.73-9.65-8.93-9.71-20.49-6.13-17.42,5.38-34.91,10.57-52.51,15.32-13.45,3.62-27.25-3.87-32.5-16.81a47.43,47.43,0,0,1-2.23-29.66c2-8.25,1.15-10.12-6-14.33-10.36-6.11-11.76-9.94-7.61-21.49-1.78-1.49-3.67-3.06-5.54-4.64-5.12-4.33-6.07-7.63-3.47-13.92,1.44-3.5,3.43-6.77,5.13-10.16,3.74-7.46,2.9-10.17-4.27-14.14-3.83-2.13-7.75-4.13-11.42-6.51-11.18-7.23-13.34-17-5.91-28.1,5.2-7.78,11.47-14.87,16.39-22.8,7.69-12.41,14.59-25.31,21.94-37.94,1.8-3.08,1.26-5.5-1.19-7.77-1.83-1.69-3.63-3.41-5.49-5.06-8.83-7.87-11.73-17.5-6.74-28.08,7.6-16.11,11.18-33.43,16.71-50.17,15.28-46.27,46.45-75.77,94.34-86.87,25.37-5.89,50.93-10.51,76.94-12.45a20,20,0,0,0,3.33-.82h27.25a17.07,17.07,0,0,0,2.93.76A174.67,174.67,0,0,1,350.2,52.6a34.68,34.68,0,0,0,3.3,1.32c0-4.5.22-8.45-.06-12.37-.32-4.4.85-7.95,4.5-10.55H463.41A26.3,26.3,0,0,1,481,48.58ZM308.66,315.84h86.62c8.57,0,10.57-2,10.57-10.62q0-40.86,0-81.73c0-1.54-.16-3.08-.25-4.85h-5.77c-8.94,0-17.88.15-26.8-.07-7.23-.19-10.32-5.87-6.9-12.17.35-.64.8-1.24,1.1-1.9a10.51,10.51,0,0,0-1.59-11.88c-3.16-3.72-7.27-4.76-11.91-3.38-6.77,2-9.49,9.79-5.86,16.51,4,7.44,1,12.71-7.4,12.86-5.71.11-11.42,0-17.13,0h-14.7c0,10.79,0,21,0,31.27,0,8.93-5.32,12.06-13.21,7.86-5.21-2.79-10.67-1.86-14.25,2.41a11.26,11.26,0,0,0,0,14.16c3.34,4.09,9.3,5.08,14.34,2.38,7.9-4.23,13.12-1.15,13.14,7.8C308.67,294.75,308.66,305,308.66,315.84ZM196.15,203h22.08c.45-16.94,9.77-28.3,24-29.48a25.93,25.93,0,0,1,18.54,5.33c7.91,6.09,10.87,14.49,10.27,24.34h22.37c0-1.76,0-3.34,0-4.92,0-9.08-.13-18.16,0-27.24.15-7.87,5.63-10.86,12.51-7.06,5.45,3,11.13,2.27,14.76-1.93a11.17,11.17,0,0,0,.18-14.15c-3.57-4.29-9.28-5.2-14.7-2.36-7.41,3.88-12.68.77-12.77-7.66-.09-8.94,0-17.87,0-26.81,0-1.54-.15-3.08-.24-4.89H260.55c-18.46,0-36.91,0-55.37,0-6.61,0-9,2.53-9,9.06,0,7.18,0,14.35,0,21.53Zm97,15.68H288c-9.08,0-18.16.14-27.24-.06-7.47-.17-10.32-5.76-7-12.45a15.58,15.58,0,0,0,1.83-8.27C255,193.17,252,190,247.09,189a10.38,10.38,0,0,0-11.21,4.2c-2.88,3.91-2.82,8.16-.57,12.4,4.11,7.75,1.15,12.93-7.56,13-8.94.1-17.87,0-26.81,0-1.53,0-3.06.16-4.79.26v4.43q0,41.31,0,82.61c0,7.66,2.23,9.88,9.91,9.89h87.28c0-6.49,0-12.47,0-18.45,0-1.13-.18-2.27-.27-3.35-19.48-2.27-30-11.91-29.75-27s10.28-24.19,29.79-26.3Zm150.47-75.39H466v-4.54q0-41.06,0-82.11c0-8.21-2.47-10.6-10.85-10.61H368.73V68.26C388.5,69.42,399,79.52,398.39,96.51c-.54,14.77-12.5,24.74-29.64,24.57v22.26h22.09c.57-18.74,10.63-29.92,26.67-29.81C433.14,113.64,443.22,125,443.58,143.25Z"/><path d="M166.28,89.83c-.87,1.08-2.09,4-4.23,5-27.35,12.62-39.24,36.22-45.86,63.68a64.13,64.13,0,0,1-1.74,6.78,7.22,7.22,0,0,1-9.1,4.69,7.41,7.41,0,0,1-5.37-8.8c4.35-22.63,12.72-43.39,28.42-60.72A75.06,75.06,0,0,1,155,81.6C160.79,79.14,166.32,82.5,166.28,89.83Z"/><path d="M99,181a7.38,7.38,0,0,1,7,7.92,7.66,7.66,0,0,1-7.82,7.18,7.88,7.88,0,0,1-7.27-8.25A7.6,7.6,0,0,1,99,181Z"/></svg>