<svg id="Layer_1" data-name="Layer 1" xmlns="http://www.w3.org/2000/svg" viewBox="0 0 512 512"><path d="M404.6,330.32a75.78,75.78,0,0,1-8.87.53,72.93,72.93,0,0,1-63.33-36.76,84.79,84.79,0,0,0,7.72-35.23,91.32,91.32,0,0,0-.63-10.32,85.41,85.41,0,0,0-7.62-26.26,73,73,0,0,1,137,35.43A73.69,73.69,0,0,1,466,277.94a72.93,72.93,0,0,1-61.43,52.38m64.25,64.88a73.13,73.13,0,0,1-145.73,8.87,75.53,75.53,0,0,1-.53-8.87,72.9,72.9,0,0,1,34.06-61.67A85.24,85.24,0,0,0,395.73,343a87,87,0,0,0,10.32-.62,85.17,85.17,0,0,0,28.76-8.85,73.34,73.34,0,0,1,34,61.69m-214,72a73.05,73.05,0,0,1-41-133.59,84.81,84.81,0,0,0,86.17-2.5A72.41,72.41,0,0,1,321.62,353a84.92,84.92,0,0,0-11.16,42.17,87.13,87.13,0,0,0,.62,10.32,85.27,85.27,0,0,0,7,25,72.62,72.62,0,0,1-63.23,36.68m-118.3-1.67a73.08,73.08,0,0,1-59.34-132A85.13,85.13,0,0,0,106,342.36a87.09,87.09,0,0,0,10.34.62,85.22,85.22,0,0,0,39.06-9.45,73.33,73.33,0,0,1,22.93,23,83.86,83.86,0,0,0-5.4,13.93A85.13,85.13,0,0,0,179,432.8a72.8,72.8,0,0,1-42.43,32.7M46,278a74.07,74.07,0,0,1-2.84-20.25,73,73,0,0,1,135.8-37.49,84.39,84.39,0,0,0-.62,76,72.9,72.9,0,0,1-62,34.64,75.86,75.86,0,0,1-8.89-.53A72.94,72.94,0,0,1,46,278m0-139.73a73.21,73.21,0,0,1,70.32-93.4,72.63,72.63,0,0,1,62,34.63,84.85,84.85,0,0,0-7.83,25.61,12.84,12.84,0,1,0-.88,12.75A85,85,0,0,0,182.44,162a73.14,73.14,0,0,1-23.37,21.87,84.79,84.79,0,0,0-18.66-8A59.09,59.09,0,0,0,165.35,161a6.07,6.07,0,0,0-8.59-8.59,47.37,47.37,0,0,1-67,0A6.07,6.07,0,0,0,81.19,161a59.58,59.58,0,0,0,19.47,13,84.7,84.7,0,0,0-21.37,7A73.45,73.45,0,0,1,46,138.23M254.85,43.68A73,73,0,0,1,327.44,108a70.94,70.94,0,0,1,.53,8.86A72.94,72.94,0,0,1,289.74,181a88.57,88.57,0,0,0-11.31-4.16,86.72,86.72,0,0,0-16.29-2.93A59.27,59.27,0,0,0,300,156.73a6.07,6.07,0,1,0-8.57-8.59,47.42,47.42,0,0,1-67,0,6.06,6.06,0,1,0-8.57,8.56,59.19,59.19,0,0,0,35.64,17,84.66,84.66,0,0,0-31.41,7.29A72.82,72.82,0,0,1,191.42,80.54l1.2-.62c-.11-.23-.27-.46-.39-.72a73.1,73.1,0,0,1,62.62-35.52M302,187.8a85.5,85.5,0,0,0,18.78-16.91,84.13,84.13,0,0,0,21.31,20.42,84.78,84.78,0,0,0-17.23,18.91A84.83,84.83,0,0,0,302,187.8M181.7,258.86A73.14,73.14,0,0,1,327.44,250a71.76,71.76,0,0,1,.53,8.89,73.14,73.14,0,1,1-146.27,0m26-71a85.19,85.19,0,0,0-21.64,20.78,85.94,85.94,0,0,0-16.13-17.3,85.59,85.59,0,0,0,20.1-19,85.09,85.09,0,0,0,17.67,15.57M185.07,345.1a85.16,85.16,0,0,0-18.38-18.61,85.62,85.62,0,0,0,18.52-18.57A86.73,86.73,0,0,0,203,326.4a85.55,85.55,0,0,0-17.9,18.7M329,342a84.85,84.85,0,0,0-18.62-18.64,86.23,86.23,0,0,0,15.25-17.11,85.42,85.42,0,0,0,19.63,20.19A84,84,0,0,0,329,342m66.7-297.2a73.06,73.06,0,0,1,37,136.15,85,85,0,0,0-21.3-7,59.57,59.57,0,0,0,19.4-13,6.07,6.07,0,0,0-8.59-8.57,47.34,47.34,0,0,1-67,0,6.07,6.07,0,0,0-8.59,8.59,59.14,59.14,0,0,0,24.9,14.92,83.79,83.79,0,0,0-18.59,8,72.84,72.84,0,0,1-24.65-23.78,85.26,85.26,0,0,0,11.81-43.29,91.32,91.32,0,0,0-.63-10.32,85.71,85.71,0,0,0-7-25,72.65,72.65,0,0,1,63.24-36.68m82,236.46a86.4,86.4,0,0,0,3.3-23.58,85.28,85.28,0,0,0-36.51-69.87A85.21,85.21,0,0,0,395.73,32.71a84.8,84.8,0,0,0-70.07,36.61,85.15,85.15,0,0,0-140.47-1.55A85.27,85.27,0,0,0,34.33,141.58a85.59,85.59,0,0,0,33.18,46.26,85.29,85.29,0,0,0-1.68,138.69A85.24,85.24,0,1,0,186,444.19a85.17,85.17,0,0,0,138.85-1.48A85.26,85.26,0,1,0,446.15,326.53a85.13,85.13,0,0,0,31.55-45.24"/><path d="M422.22,278.15a47.34,47.34,0,0,1-67,0,6.07,6.07,0,0,0-8.59,8.59,59.51,59.51,0,0,0,84.16,0,6.07,6.07,0,0,0-8.59-8.57"/><path d="M424.36,223.49a12.89,12.89,0,1,0,12.88,12.89,12.89,12.89,0,0,0-12.88-12.89"/><path d="M366,236.38a12.89,12.89,0,1,0-12.89,12.89A12.9,12.9,0,0,0,366,236.38"/><path d="M424.36,123.52a12.89,12.89,0,1,0-12.89-12.89,12.89,12.89,0,0,0,12.89,12.89"/><path d="M353.11,123.52a12.89,12.89,0,1,0-12.89-12.89,12.89,12.89,0,0,0,12.89,12.89"/><path d="M295.75,285.13a6.11,6.11,0,0,0-8.59,0,47.39,47.39,0,0,1-67,0,6.06,6.06,0,1,0-8.57,8.57,59.58,59.58,0,0,0,84.14,0,6.1,6.1,0,0,0,0-8.59"/><path d="M289.3,256.26a12.89,12.89,0,1,0-12.89-12.89,12.9,12.9,0,0,0,12.89,12.89"/><path d="M230.94,243.37a12.89,12.89,0,1,0-12.88,12.88,12.89,12.89,0,0,0,12.88-12.88"/><path d="M293.55,119.27a12.89,12.89,0,1,0-12.89-12.88,12.88,12.88,0,0,0,12.89,12.88"/><path d="M222.3,119.27a12.89,12.89,0,1,0-12.89-12.88,12.89,12.89,0,0,0,12.89,12.88"/><path d="M422.22,410.89a47.43,47.43,0,0,1-67,0,6.07,6.07,0,0,0-8.57,8.59,59.57,59.57,0,0,0,84.16,0,6.06,6.06,0,0,0-8.59-8.56"/><path d="M424.36,382a12.89,12.89,0,1,0-12.89-12.89A12.89,12.89,0,0,0,424.36,382"/><path d="M366,369.11A12.89,12.89,0,1,0,353.11,382,12.89,12.89,0,0,0,366,369.11"/><path d="M165.35,286.73a6.07,6.07,0,1,0-8.59-8.59,47.37,47.37,0,0,1-67,0,6.07,6.07,0,0,0-8.59,8.59,59.61,59.61,0,0,0,84.16,0"/><path d="M100.54,236.38a12.89,12.89,0,1,0-12.89,12.89,12.9,12.9,0,0,0,12.89-12.89"/><path d="M158.9,249.27A12.89,12.89,0,1,0,146,236.38a12.9,12.9,0,0,0,12.89,12.89"/><path d="M100.54,110.63a12.89,12.89,0,1,0-12.89,12.89,12.9,12.9,0,0,0,12.89-12.89"/><path d="M156.78,410.89a47.43,47.43,0,0,1-67,0,6.06,6.06,0,1,0-8.56,8.59,59.6,59.6,0,0,0,84.13,0,6.06,6.06,0,0,0-8.56-8.59"/><path d="M100.54,369.11A12.89,12.89,0,1,0,87.65,382a12.89,12.89,0,0,0,12.89-12.89"/><path d="M158.9,356.22a12.89,12.89,0,1,0,12.89,12.89,12.9,12.9,0,0,0-12.89-12.89"/><path d="M291.42,413.62a47.42,47.42,0,0,1-67,0,6.07,6.07,0,1,0-8.57,8.59,59.58,59.58,0,0,0,84.14,0,6.07,6.07,0,1,0-8.57-8.59"/><path d="M293.55,359a12.89,12.89,0,1,0,12.88,12.89A12.9,12.9,0,0,0,293.55,359"/><path d="M235.19,371.85a12.89,12.89,0,1,0-12.89,12.89,12.89,12.89,0,0,0,12.89-12.89"/></svg>