<svg id="Layer_1" data-name="Layer 1" xmlns="http://www.w3.org/2000/svg" viewBox="0 0 512 512"><path d="M220.62,408.42c-13.86,0-27.73-.06-41.57,0-4.75.05-8,3.26-7.94,7.34.07,3.93,3.22,7.1,7.7,7.11,27.87.08,55.73.12,83.58-.13a9.33,9.33,0,0,0,6.54-3.64c3.4-4.86-.57-10.63-7.19-10.68-13.71-.1-27.41,0-41.12,0m34.27,29.32H186.32c3.51,16.79,17.87,28.72,34.28,28.74s30.76-11.91,34.29-28.74M220.6,379.39H171.06c-2.35,0-4.72-.13-7.07.06a7.43,7.43,0,0,0-7,7.32,7.53,7.53,0,0,0,6.84,7.07,27.66,27.66,0,0,0,3.53.07H273c.88,0,1.76,0,2.65,0,5.14-.13,8.51-2.93,8.6-7.15s-3.31-7.33-8.38-7.34c-18.43-.06-36.87,0-55.3,0M94.05,205h41.31c1.87-16.71,12.46-28.09,26.35-28.8a28.14,28.14,0,0,1,19.81,6.17c7.12,5.75,10.45,13.53,11,22.53h27.87V183.82c-17.12-2.55-27.71-13.23-28.15-27.9a29.45,29.45,0,0,1,6.54-20.14c5.55-6.85,12.92-10.16,21.82-10.65V89.37C151.09,86.57,97.1,143.32,94.05,205m253.84,14.71H305.58c0-4.58,0-8.63,0-12.68-.07-9.51-6-16.32-14.2-16.29s-14.07,6.75-14.13,16.36c0,4.16,0,8.33,0,12.79H234.68v43.4c-4.72,0-9-.05-13.22,0-5,.07-9.28,1.84-12.2,6.13-3.09,4.54-3.74,9.44-1.28,14.54a13.93,13.93,0,0,0,12.73,8.31c4.64.2,9.29,0,14.22,0v72.3h35.25c0-7.22.15-14.16-.07-21.08a7.28,7.28,0,0,1,3-6.5c10.58-8.7,21.18-17.37,31.47-26.43,26.95-23.76,41.18-54,43.35-90.9M171.05,364.56h49.38v-57.3c-17.9-2.94-28.1-13.6-28.12-29.27-.05-16,9.89-26.56,28-29.68V219.52H178.13c0-4.58,0-8.64,0-12.72-.08-9.27-5.89-15.93-14-16.09s-14.27,6.63-14.36,16.13c0,4.18,0,8.37,0,13.09H93.36c2,34.87,14.91,64,39.66,87.22,11.18,10.51,23.28,20,35.07,29.79a7.27,7.27,0,0,1,3,6.46c-.23,6.94-.07,13.89-.07,21.16m-13.2,43.2c-9.16-4-14.86-10.31-15.1-20.64-.19-8.64,3.64-15.18,10.9-19.31,2.62-1.5,2.93-3.21,3.38-5.93,1.79-11.1-2.43-18.31-11.24-24.88-13.2-9.83-25.94-20.48-36.24-33.77C86.09,273,75.66,238.52,79.85,200.09c6.68-61.1,47.75-108,106-122.23,16-3.9,32.13-3.39,48.6-3.2v65.22c-4.33,0-8.57-.06-12.82,0-8.72.15-15.07,6.19-15.18,14.36s6.46,14.53,15.34,14.66c4.13.06,8.24,0,12.83,0v36h28.08c2.58-18.81,13.6-29.19,30.32-28.76,14.31.36,25.51,12.21,26.88,28.87H362a150.88,150.88,0,0,1-2,35.48C353.06,278,333.55,307.15,304.3,330c-6,4.66-11.76,9.61-17.41,14.69-1.31,1.19-2.05,3.37-2.46,5.24s.06,3.92-.12,5.88c-.54,6,.56,10.27,6.29,14.41,12.17,8.78,10.13,27.79-2.84,35.34-1.4.79-2.86,1.47-3.38,1.73-.44,5.72-.19,10.9-1.38,15.71-1.37,5.61-5.57,9.38-10.49,12.28a7.19,7.19,0,0,0-3.11,4.29C264.73,464,244.47,481.09,220,481c-23.4-.09-43.76-17.6-48.12-41.3-.25-1.37-.84-3.3-1.84-3.8-11.52-5.91-15-15.4-12.2-28.14"/><path d="M391,147.14c6.1,0,12.26,0,18.41,0,7,0,9.49-2.62,9.49-9.93q0-40.79,0-81.59c0-7.59-2.43-10.09-9.77-10.09q-26.53,0-53.06,0c-13.86,0-27.72-.05-41.56,0-6.19,0-8.81,2.79-8.9,9.16-.05,3.78,0,7.55,0,11.33V81.81c-4.69,0-8.66,0-12.63,0-9.08.09-15.52,6-15.67,14.32s6.53,14.61,15.75,14.7c4.06,0,8.14,0,12.7,0v36.28h28c1.3-16.56,12.45-28.51,26.49-29,16.92-.62,28,9.7,30.77,29m-42.91,14.42H291.64v-35.9c-9.47-.65-17.14-4.17-22.77-11.68a29.71,29.71,0,0,1-5.74-20.4c.85-14,12-24.75,28.29-26.58,0-4.74,0-9.54,0-14.33.09-12.09,9.23-21.62,21-21.64Q362.18,31,412,31c11.77,0,21,9.49,21.06,21.54q.09,43.77,0,87.53a21.18,21.18,0,0,1-21.08,21.53c-11.62.06-23.26,0-35.54,0,0-4.38,0-8.55,0-12.7-.08-9.53-6-16.34-14.2-16.31s-14.07,6.75-14.13,16.37c0,4.05,0,8.1,0,12.55"/></svg>