<svg id="Layer_1" data-name="Layer 1" xmlns="http://www.w3.org/2000/svg" viewBox="0 0 512 512"><path d="M223.17,481c-11.19-4.21-15.45-12.68-14.51-24.39.12-1.43,0-2.86,0-4.69-1.91-.08-3.45-.21-5-.21-13.1,0-26.19.05-39.31,0-23.64-.12-39.89-16.56-39.89-40.61q-.08-169.59,0-339.19c0-21.33,11.18-35.36,31.83-40.3a8,8,0,0,0,1.17-.58h40.59c3,2.11,5.42,4.62,3.93,8.71s-4.8,4.53-8.49,4.49c-9.65-.09-19.3-.05-28.93,0-16.77,0-27.15,10.54-27.15,27.7q-.06,71.4,0,142.8,0,98,0,196c0,13.62,6.54,23.33,18.1,26.67a31.63,31.63,0,0,0,8.51,1.14c14.11.11,28.2,0,42.32.09a5,5,0,0,0,5.12-2.87c3.72-6.45,8.12-8.53,18.79-9.53a42,42,0,0,0-1.39-4.83,35.38,35.38,0,0,0-12.42-14.84,69.81,69.81,0,0,1-24.16-30.82c-1.8-4.42-.7-8.12,2.74-9.76,3.64-1.72,7.16,0,9.16,4.69A62,62,0,0,0,225.59,397c9.9,7.16,15.94,17.11,18.35,29.31h108c.37-2.49.31-5.08,1.16-7.33,3-7.72,5.38-15.81,9.51-22.83,5.89-10,9.4-20.21,9.19-31.9-.22-14.63,0-29.28-.06-43.94,0-8.53-4.81-14.17-12-14.13-6.73,0-11.83,6-12.06,14-.15,5.52-2.12,8.15-6.17,8.2s-6.54-2.95-6.62-8.47c-.06-4.69.08-9.38-.06-14-.23-7.68-5.71-13.06-13-12.91-7,.12-12.27,5.56-12.39,13-.11,5,.06,9.94,0,14.92-.09,4.57-2.49,7.29-6.29,7.37-4.05.11-6.58-2.63-6.62-7.41-.09-8.36,0-16.71-.09-25.05-.06-8.65-5.33-14.4-13-14.3-6.93.1-11.87,6.08-11.91,14.42,0,7.48,0,15,0,22.42,0,6.83-1.95,9.88-6.37,9.92s-6.58-3.13-6.61-9.77q0-46.58,0-93.15c0-8.74-6.24-14.45-14.42-13.47a12.23,12.23,0,0,0-10.85,10.79,43.18,43.18,0,0,0-.23,5.69q0,57.78,0,115.56a36.59,36.59,0,0,1-.21,5.25c-.5,3.32-2.49,5.25-5.81,5.44-3.51.21-5.81-1.58-6.56-5a26.77,26.77,0,0,1-.35-5.67c0-12.87,0-25.76,0-38.52-10-2.68-19.71,5.58-20.09,16.85-.18,5.85,0,11.73,0,17.58-.06,5.19-2.45,8.14-6.45,8.08-3.76-.05-6.4-3.1-6.48-7.81-.08-6.14-.19-12.31,0-18.45.58-15.9,11.44-27.87,26.94-29.93,1.83-.25,3.68-.35,6.08-.58v-5.23c0-20.22-.16-40.43.07-60.65.23-19.84,18.78-32.4,36.09-24.49,9.82,4.48,15.09,12.52,15.23,23.52.21,15.38.05,30.74.05,46.59,15.62-5.73,27.7-1.68,36.11,13.18,6.95-4.15,14.4-5.66,22.25-3.11s13.24,8,16.38,15.36c.49.08.66.18.78.12,7.12-2.82,7.12-2.82,7.12-10.73V222c0-1.47,0-2.94.11-4.4.31-3.61,2.45-5.66,5.83-5.93s5.81,1.6,6.6,5.06a24.43,24.43,0,0,1,.39,5.21c0,22.71.07,45.41,0,68.12,0,2.84.75,4.3,3.41,5.6,9.23,4.57,14.05,12.35,14.17,22.79.15,15.67,0,31.34,0,47,.05,13.56-3.4,26-11,37.22a46.22,46.22,0,0,0-8.42,23.85c1.51,0,2.86-.05,4.21,0,10,.33,17.6,8,17.95,18.22.17,4.4.06,8.8.06,13.18,0,13.47-2.84,17.87-14.88,23.1H330.28c-2.67-2.43-4.92-5.13-3.3-9.05s5.07-4.19,8.7-4.17q16,.12,31.94,0c4.94,0,6.81-1.91,6.89-6.87s.07-9.65,0-14.49-1.91-6.76-6.49-6.76q-69.93,0-139.85,0c-4.32,0-6.33,2-6.5,6.45s0,8.78,0,13.16c0,6.85,1.68,8.53,8.45,8.53q35.17,0,70.34,0c3.73,0,7,.58,8.28,4.69s-1.14,6.6-4.34,8.53Z"/><path d="M334.6,31a85.91,85.91,0,0,1,8.88,3c15.26,7.06,23.43,19.28,23.56,36.24.29,38.38.1,76.75.08,115.13,0,5-2.76,8.13-6.66,8s-6.25-3.11-6.27-8.32q0-56.48,0-113c0-14.7-7.93-25-21-27.54a37.47,37.47,0,0,0-6.87-.42q-47.73,0-95.46,0c-1,0-2,0-3,0-3.69.19-7-.39-8.49-4.44s1-6.56,3.84-8.76Z"/><path d="M316.12,196.62c-.23,18.51-5.73,34-16.75,47.45-2.26,2.76-4.92,4.15-8.34,2.84-4.34-1.68-5.3-6.75-1.89-10.94a61.88,61.88,0,0,0,13-27.37c6.21-31.3-14.57-62.1-46.18-68.31-30.07-5.89-60.81,15.28-66.4,45.89-3.25,17.81.56,34,11.67,48.26.52.68,1.1,1.35,1.6,2.07,2.3,3.34,2,7.14-.75,9.42s-6.56,1.94-9.22-1.12a69.61,69.61,0,0,1-15.31-29.61c-9.63-39.56,15.29-79.89,54-87.51,40.16-7.91,77.94,19.06,83.85,59.9.48,3.32.54,6.71.73,9"/><path d="M204.13,197.39c.21-23.56,19-42.44,41.86-42.24,23.12.23,41.84,19.6,41.64,43.15v.44c-.19,6.81-2.6,10.11-7.14,9.86s-6.06-3.18-5.86-10.23a29.34,29.34,0,0,0-28.22-30c-15.51-.54-29,12.39-29.41,28.25,0,1.62.1,3.22,0,4.84-.13,4-2.72,6.89-6.27,7s-6.25-2.59-6.62-6.66c-.12-1.45,0-2.93,0-4.38"/><path d="M239.57,70c-6.62,0-13.22,0-19.84,0-4.8,0-7.64-2.45-7.74-6.33-.13-4,2.84-6.77,7.8-6.79q19.83-.12,39.68,0c5,0,7.89,2.78,7.72,6.85-.14,3.92-2.9,6.23-7.78,6.27-6.62.06-13.22,0-19.84,0"/><path d="M282.24,56.9A6.49,6.49,0,0,1,288.3,64a6.37,6.37,0,1,1-12.69-1.06,6.37,6.37,0,0,1,6.63-6"/></svg>