<svg id="Layer_1" data-name="Layer 1" xmlns="http://www.w3.org/2000/svg" viewBox="0 0 512 512"><path d="M374.83,31c7.05,1.77,14.38,2.8,21.09,5.43C431.26,50.31,452.55,76,456.42,114c3.9,38.34-12.05,67.87-44.33,88.62-2.2,1.42-3.16,2.82-3.13,5.54.17,12.88.16,25.78,0,38.66-.07,7.48-6.7,11.9-12.87,8.77-3.69-1.88-4.94-5.14-4.92-9.1,0-9.67,0-19.33,0-29v-4.84c-7.15,1-14,2.35-20.88,2.83s-13.69.11-21.12.11v4.86q0,89.66,0,179.29c0,16.88-9.45,29.48-25.07,33.18a46.06,46.06,0,0,1-10.45.83q-87.45.06-174.89,0h-5.54c0,6.59-.56,12.88.16,19,.69,5.77,6.67,10.06,13,10.62,1.31.12,2.63.06,4,.06H373.6c12.28,0,17.6-5.33,17.61-17.69q0-57.12,0-114.25c0-1.61,0-3.23.12-4.83.47-5,3.75-8.19,8.48-8.29a8.81,8.81,0,0,1,9.16,8.19,23.22,23.22,0,0,1,0,2.64q0,59.54,0,119.08c0,16.23-10.44,28.94-26.25,32.23a34.68,34.68,0,0,1-7,.47q-113.8,0-227.62,0c-19.08,0-32.92-13.62-33.27-32.74-.09-4.65,0-9.31,0-14.51-8.75,0-17.07.3-25.36-.11-5-.25-10.37-.73-14.92-2.64-12.32-5.18-18.51-15.13-19.54-28.36-.08-1,0-2.05,0-3.07Q55,241.8,55,84.05C55,67.35,64.31,54.72,79.64,51A48,48,0,0,1,91,50q106.12-.08,212.24,0a16,16,0,0,0,9.72-3,87.74,87.74,0,0,1,39.27-15.18,13.47,13.47,0,0,0,2.44-.82ZM290.64,68.19a13.64,13.64,0,0,0-1.87-.34q-101.05,0-202.11,0A13.63,13.63,0,0,0,73.15,80.35,51.27,51.27,0,0,0,73,85.61V398c0,1,0,2.05,0,3.08.33,9.35,6,14.91,15.3,14.91q113.81,0,227.6,0a18.48,18.48,0,0,0,4.76-.51c7.17-2,10.57-7.16,10.58-16.09q0-81.06,0-162.13c0-7.62-.15-15.24.06-22.85.09-3.45-.68-5.44-4.24-6.93A92.25,92.25,0,0,1,287,173.22a62.23,62.23,0,0,1-7.63,1q-77.34.09-154.66,0c-7.31,0-10.72-3.41-10.75-10.77-.05-10.55,0-21.09,0-31.64,0-9.6,3-12.59,12.56-12.59q35.58,0,71.18,0c23.43,0,46.86-.07,70.3.07,3.49,0,5-.83,5-4.54a54.56,54.56,0,0,1,1.35-10C276.91,91.54,282.52,79.6,290.64,68.19Zm148.72,55.32a74.52,74.52,0,0,0-149-1c-.29,41.4,32.78,75.36,73.54,75.53C405.69,198.17,439.15,165.16,439.36,123.51Zm-307.2,32.8H272V137.52H132.16Z"/><path d="M391.32,287.43a8.91,8.91,0,0,1,8.66-9.16,9,9,0,1,1,0,17.91A9,9,0,0,1,391.32,287.43Z"/><path d="M202.06,287.82h74.68c1.32,0,2.64-.05,3.95,0,5.61.38,9.53,4.09,9.56,9s-3.88,8.64-9.48,9c-1,.07-2,0-3.07,0H126.58c-8.15,0-12.59-3.16-12.62-9s4.48-9.07,12.54-9.07Z"/><path d="M202.09,222.47q-38.67,0-77.32,0c-8,0-13.07-6.08-9.85-12.3,1.17-2.26,4-3.95,6.46-5.16,1.7-.84,4-.51,6.06-.51q74.67,0,149.35,0a34.67,34.67,0,0,1,5.68.33,8.91,8.91,0,0,1,7.78,8.69,9.09,9.09,0,0,1-7.36,8.69,23.38,23.38,0,0,1-4.81.26Q240.09,222.49,202.09,222.47Z"/><path d="M202.13,264q-39.09,0-78.17,0c-7.42,0-12.23-6.18-9-12,1.33-2.43,4.64-3.89,7.26-5.43,1-.58,2.58-.12,3.9-.12h152c1,0,2.05,0,3.07,0,5.14.2,9.1,4,9.12,8.78a8.87,8.87,0,0,1-9.06,8.77c-12.3.11-24.59,0-36.89,0Q223.22,264,202.13,264Z"/><path d="M202.15,329.78q39.09,0,78.17,0c7.22,0,11.58,5.67,9.23,11.79a8.45,8.45,0,0,1-7.58,5.75c-1.45.14-2.92.05-4.39.05H126.51c-1.17,0-2.34,0-3.51,0-5.09-.23-9.06-4.15-9-8.88a8.88,8.88,0,0,1,9.14-8.68c16.84-.08,33.67,0,50.51,0Z"/><path d="M373.85,141.87c0,9.79,0,19.58,0,29.37,0,4.34-2,7.73-6.25,9-4,1.21-7.72.2-9.95-3.49a12.59,12.59,0,0,1-1.62-6.21q-.18-28.72,0-57.43c0-6.43,3.55-10.13,9-10.07s8.82,4,8.85,10.3C373.89,122.87,373.85,132.37,373.85,141.87Z"/><path d="M365,74.8a8.89,8.89,0,0,1,8.74,9,9.24,9.24,0,0,1-8.89,8.61,9,9,0,0,1-8.9-9A8.73,8.73,0,0,1,365,74.8Z"/></svg>