<svg id="Layer_1" data-name="Layer 1" xmlns="http://www.w3.org/2000/svg" viewBox="0 0 512 512"><path d="M481,258.62c-2.54,4.83-6.52,6.6-11.91,6.22-4.65-.33-9.35,0-14-.1-5.56-.12-9.32-3.86-9.2-9,.11-4.91,3.81-8.43,9.2-8.54,4.67-.11,9.37.23,14-.1,5.39-.38,9.37,1.39,11.91,6.22Z"/><path d="M253.35,481c-4.83-2.54-6.6-6.52-6.22-11.92.33-4.65,0-9.34.1-14,.12-5.57,3.86-9.32,9-9.21,4.91.12,8.42,3.82,8.54,9.21.1,4.67-.23,9.36.1,14,.38,5.4-1.39,9.38-6.22,11.92Z"/><path d="M344.34,382.53c-8,42.3-61.61,55.27-88.47,20.73-13.38,16.14-30.49,23.17-51,18.44s-32.66-18.29-37.14-38.52c-6.34-.82-12.67-1-18.69-2.51-24.28-5.95-42.05-28.54-42.15-53.51a47.24,47.24,0,0,1,6.21-24.37c1.53-2.6,1.51-4-1.06-6.09C78.66,269.77,81.85,220,118.4,197.3c2.71-1.68,3.33-3.43,3-6.38-2.69-26.42,15.36-51.72,41.42-57.92,3.53-.84,4.87-2.35,5.41-5.94,2.65-17.7,19.6-34.07,38.18-37.2,19-3.21,34.92,2.37,47.59,17a18.77,18.77,0,0,1,1.57,2.72c6.22-7.81,12.94-13.26,21.16-16.81,28.53-12.31,61.7,5.26,67.12,35.69.49,2.73,1.81,3.84,4.38,4.51C368,138,381.46,150.1,388,169.47c1,3.05,2.89,4.39,5.54,5.53,22,9.46,35.41,26.23,39.61,49.51,5,27.71-8.2,55-33.17,68.86-1.53.85-3.06,1.67-4.95,2.71,12.64,19.37,13.69,39.34,1.87,59.11C385.24,374.75,367.17,383.33,344.34,382.53Zm-159-251c3,.87,5.37,1.49,7.7,2.27,10.78,3.63,17,12,22,21.5,2.34,4.47,5.16,7.73,10.77,8.36a8.19,8.19,0,0,1,7.17,9.38c-.66,4.85-4.85,8.08-10,7.82-8.84-.46-15.59-4.5-20.37-11.88-1.74-2.69-3.45-5.44-4.93-8.29-4.65-8.89-11.19-12.72-24.31-11.6-23.07,2-39.9,24.6-32.88,47.59,1.73,5.67-.19,9.13-5.47,11.89-1.42.74-2.9,1.38-4.35,2.09-16.06,7.88-25.82,25.89-23.57,43.41,2,15.41,10.18,26.38,23.65,33.78,7.38,4.05,8.14,9.05,3.21,15.84-2.72,3.75-5.63,7.66-7.1,12-8.67,25.3,12.65,51.31,39.6,48.76,12.37-1.17,21.92-5.9,25.48-18.89a31.8,31.8,0,0,1,1.81-4.46c4-8.86,10.8-14.41,20-17,3.77-1.07,7.82-.69,9.79,2.85,1.38,2.5,2,6.32,1.1,8.92-.77,2.28-3.87,4.31-6.39,5.32a15,15,0,0,0-9.16,9.33c-1,2.75-2.15,5.43-3.32,8.11-3.4,7.81-8.76,14-16.5,17.48-4.32,1.93-4.19,4.19-3,7.81a31.32,31.32,0,0,0,37.8,20.34c14.41-3.95,23.09-15.37,23.13-30.81q.1-48.34,0-96.68c0-1-.1-2-.12-2.4l-27.51-8.2c-7.84,5.07-15.64,10.48-23.8,15.25-5.79,3.39-11.91.43-13.33-5.76-.88-3.85,1.09-7.23,5.43-10,5.53-3.55,10.94-7.27,16.36-11,1.61-1.1,2.28-2.26.95-4.35-3.29-5.18-6.27-10.55-9.34-15.87a23.32,23.32,0,0,0-15.66-11.72c-1.71-.38-3.48-.53-5.15-1-4.63-1.36-7.46-5.75-6.56-9.95a9.14,9.14,0,0,1,10-7.28c14.07,1.7,25.11,8.25,32.43,20.59,2.83,4.78,5.54,9.64,8.37,14.41,6.22,10.46,15.8,14.88,27.76,15.69.07-1.11.15-1.82.15-2.54q0-57.35-.05-114.69a34,34,0,0,0-1.31-9.07,30.86,30.86,0,0,0-38-21C195.84,111.33,188.3,119,185.33,131.54Zm79.44,143.18c1.18-.55,1.7-.74,2.17-1,21-12.28,44.19-1.76,54.84,16.79a8.79,8.79,0,0,1-2.71,12c-3.82,2.52-8.56,1.71-11.73-2.11-1.12-1.34-2-2.88-3.06-4.28C294,282.63,276,282.8,268.79,297c-2.65,5.25-3.7,11.76-3.85,17.73-.46,19.33-.23,38.67-.11,58a39.9,39.9,0,0,0,1.32,10.39,30.74,30.74,0,0,0,37.18,21.24c11.79-3,19.78-10.42,22.85-22.44.35-1.37-.43-4.12-1.44-4.58-11.11-5-17.37-14-21.12-25.09-1.9-5.6-5.06-9.52-10.95-11.53-5.54-1.88-7.56-6.68-5.79-11.49s6.47-6.58,12-5c11.11,3.23,17.87,10.85,21.21,21.54,3.41,10.89,10.79,16.31,21.78,18.21a38.52,38.52,0,0,0,39.87-17.91c8.41-14,7.17-29.52-3.64-42.25a8.1,8.1,0,0,0-5.07-2.24c-5.8-.57-11.77-.1-17.45-1.2-30.85-6-52.65-32.49-53.26-64.21-.58-30.31,20.46-57.32,50.54-64.57,5.12-1.24,10.43-1.66,16-2.52-7.16-12.29-17.63-18.76-31.35-20.13-10.7-1.07-18.58,3-24,12.56-2.33,4.13-7.42,4.7-11.24,2.41a8.57,8.57,0,0,1-3.47-11.43,60.45,60.45,0,0,1,7.58-10.68c5.21-5.94,12.33-8.58,20-10.17-.25-1.3-.36-2.31-.65-3.27-5.38-17.83-26.41-26.9-43.34-18.65-12.23,6-17.69,16.09-17.7,29.39q0,56.25,0,112.5Zm151.67-39.18A48.34,48.34,0,0,0,368,187.41c-26.68.1-48.08,22-47.91,49,.17,26,22,47.57,48.15,47.57C394.71,284,416.62,262,416.44,235.54Z"/><path d="M155.91,93.5c-2.25-1.62-5.13-2.82-6.62-5A139.46,139.46,0,0,1,140.22,73a8.76,8.76,0,0,1,3.18-11.87,8.53,8.53,0,0,1,11.88,2.93,143.33,143.33,0,0,1,9.39,16.8C167.29,86.67,162.78,92.74,155.91,93.5Z"/><path d="M93.38,156.25c-.78,6.81-6.92,11.18-12.66,8.43a150.56,150.56,0,0,1-17.07-9.82,8.6,8.6,0,0,1,8.31-15A146.39,146.39,0,0,1,89,149.7C91,151.05,92,154,93.38,156.25Z"/><path d="M93.55,356c-1.83,2.41-3.23,5.42-5.59,7.1a134.37,134.37,0,0,1-14.73,8.66c-4.55,2.44-9.55,1.09-11.93-2.89-2.49-4.18-1.66-9.2,2.63-11.95a140.28,140.28,0,0,1,16.75-9.47C86.54,344.69,92.6,349,93.55,356Z"/><path d="M442.46,373a20.8,20.8,0,0,1-3.91-1.37c-4.86-2.69-9.7-5.42-14.42-8.35s-6.18-8.15-3.65-12.43,7.42-5.56,12.26-2.95c5.4,2.9,10.72,6,15.81,9.41,3.37,2.25,4.22,5.8,2.89,9.72S447.18,372.75,442.46,373Z"/><path d="M148.23,452.74c-6.44-.77-11-6.77-8.44-12.28A138.1,138.1,0,0,1,150,422.61c2.35-3.61,7.36-4.23,11-2.19a8.19,8.19,0,0,1,3.64,10.9,157.94,157.94,0,0,1-10,17.45C153.31,450.66,150.39,451.45,148.23,452.74Z"/><path d="M363.31,453c-2.3-1.76-5.18-3.11-6.77-5.38a134.63,134.63,0,0,1-8.64-14.74c-2.59-4.9-1.32-9.77,2.84-12.29s9.51-1.2,12.46,3.54,6,9.72,8.53,14.82C374.89,445.29,370.75,452.05,363.31,453Z"/><path d="M264.75,48.8c0,2.93.12,5.86,0,8.77a8.73,8.73,0,0,1-17.46-.13c-.17-6-.18-12,0-18a8.56,8.56,0,0,1,8.78-8.5,8.65,8.65,0,0,1,8.67,8.63C264.87,42.66,264.75,45.73,264.75,48.8Z"/><path d="M48.32,264.75c-2.92,0-5.85.12-8.77,0a8.73,8.73,0,0,1,0-17.46q9-.25,18,0a8.73,8.73,0,0,1,0,17.46C54.47,264.87,51.39,264.75,48.32,264.75Z"/><path d="M167.77,273.58a8.56,8.56,0,0,1,8.6,9,8.93,8.93,0,0,1-8.75,8.55,9,9,0,0,1-8.9-8.91A8.83,8.83,0,0,1,167.77,273.58Z"/><path d="M296.67,172.05a9,9,0,0,1-9,8.84,8.86,8.86,0,0,1,0-17.71A9,9,0,0,1,296.67,172.05Z"/><path d="M368.45,239.14c5.15,0,9.8-.07,14.44,0,6,.12,10,3.63,10.09,8.69s-4.21,8.91-10.36,9c-7.31.07-14.62.1-21.93,0-6.36-.09-9.8-3.42-9.87-9.73q-.19-15.36,0-30.71c.07-5.62,3.88-9.54,8.79-9.5s8.71,4,8.81,9.6C368.56,223.88,368.45,231.29,368.45,239.14Z"/></svg>