<svg id="Layer_1" data-name="Layer 1" xmlns="http://www.w3.org/2000/svg" viewBox="0 0 512 512"><path d="M466.28,272.62c-11.71,42.65-46.41,73.64-88.44,78.94a101.3,101.3,0,0,1-12.78.82c-38.76,0-74-22.09-92.45-57.65a131.85,131.85,0,0,0,6-17.07,134.94,134.94,0,0,0,4.76-35.56,132.88,132.88,0,0,0-10.77-52.4c18.47-35.74,53.5-57.89,92.49-57.89,58.06,0,105.29,49.47,105.29,110.29a115.86,115.86,0,0,1-4.07,30.52M173.35,351.56a101.11,101.11,0,0,1-12.76.82c-58.07,0-105.31-49.47-105.31-110.28s47.24-110.29,105.31-110.29S265.88,181.28,265.88,242.1a115.86,115.86,0,0,1-4.07,30.52c-11.71,42.65-46.43,73.64-88.46,78.94m191.71-238c-41.75,0-79.67,21.7-102.28,57.48-22-34.6-59.59-57.48-102.19-57.48-67.71,0-122.78,57.68-122.78,128.58S92.88,370.65,160.59,370.65a121.24,121.24,0,0,0,14.86-.93c36.31-4.58,67.93-25.64,87.41-56.48,22.64,35.7,60.69,57.41,102.2,57.41a121.24,121.24,0,0,0,14.86-.93c49-6.19,89.48-42.33,103.13-92.06a134.53,134.53,0,0,0,4.76-35.56c0-70.9-55.06-128.58-122.75-128.58"/><path d="M413.27,283.44a66.22,66.22,0,0,1-48.22,20.94h0a66.16,66.16,0,0,1-48.18-20.9,8.44,8.44,0,0,0-12.35,0,9.44,9.44,0,0,0,0,12.94A83.22,83.22,0,0,0,365,322.65h0a83.21,83.21,0,0,0,60.58-26.27,9.5,9.5,0,0,0,0-12.94,8.5,8.5,0,0,0-12.36,0"/><path d="M416.34,201c-10.24,0-18.56,8.71-18.56,19.45s8.32,19.43,18.56,19.43,18.55-8.69,18.55-19.43S426.59,201,416.34,201"/><path d="M332.33,220.47c0-10.73-8.32-19.45-18.56-19.45s-18.55,8.72-18.55,19.45,8.29,19.43,18.55,19.43,18.56-8.69,18.56-19.43"/><path d="M208.8,283.44a66.1,66.1,0,0,1-96.45,0,8.48,8.48,0,0,0-12.34,0,9.46,9.46,0,0,0,0,12.94,83.06,83.06,0,0,0,121.13,0,9.46,9.46,0,0,0,0-12.94,8.48,8.48,0,0,0-12.34,0"/><path d="M211.86,201c-10.24,0-18.55,8.71-18.55,19.45s8.31,19.43,18.55,19.43,18.55-8.69,18.55-19.43S222.12,201,211.86,201"/><path d="M127.85,220.47c0-10.73-8.31-19.45-18.55-19.45s-18.56,8.72-18.56,19.45S99,239.9,109.3,239.9s18.55-8.69,18.55-19.43"/></svg>