<svg id="Layer_1" data-name="Layer 1" xmlns="http://www.w3.org/2000/svg" viewBox="0 0 512 512"><path d="M481,475.73c-.58,2.06-1.16,4.14-1.76,6.2-1.32,4.58-4.6,6.81-8.7,5.93s-6.3-4.8-5.05-9.64a37.34,37.34,0,0,0-.32-21.49c-4.44-13.65-13.63-22.57-27.78-25.72-13.54-3-25.09,1.05-34.54,11.06-5.35,5.66-8.46,5.72-13.76.26-5.5-5.64-11.95-8-19.86-6-5.93,1.52-8.68-.09-10.48-5.94-6.94-22.82-32.91-30.47-50-18.26-2.89,2.06-6,2.47-8.94.31-2.72-2-3.42-4.72-2.59-8.11a42.24,42.24,0,0,0-1.71-24.85c-1.89-5.21-.45-8.89,3.86-10.41,4.07-1.42,7.82.4,9.34,5.4,1.93,6.34,3.17,12.89,4.77,19.62a46.4,46.4,0,0,1,24-.77c14.49,3.62,25.14,12,31.78,25.24,1.14,2.28,2.32,3.17,4.89,3,8.08-.53,15.1,2.55,21.6,7.31a54.83,54.83,0,0,1,27.57-12.66c24-3.54,51.39,13.24,56.83,41.44A13.61,13.61,0,0,0,481,460Z"/><path d="M198.79,394c1.58-6.62,2.83-13.16,4.75-19.5,1.53-5.08,5.26-7,9.26-5.58,4.4,1.53,5.89,5.13,4,10.35a43,43,0,0,0-1.72,25.29c.82,3.41.13,6.68-2.89,7.86-2.44.95-6.43,1-8.4-.34-17.4-12.21-43.63-4.39-50.36,18.54-1.6,5.4-4.5,7.18-9.81,5.82-8.59-2.22-15.45.35-21.26,6.75-3.9,4.27-8,4.16-12-.06-13-13.67-29.48-16.89-44.86-8.79s-23,25.29-19,43c1.39,6.13-.73,10.13-5.59,10.61-4,.4-6.61-1.63-7.87-6-8.12-28,9-57.56,37.61-64.65,15.81-3.94,30.13-.45,42.94,9.32,2.16,1.67,3.53,2.06,5.94.36a30.88,30.88,0,0,1,19-5.55c1.35,0,3.5-1,4-2.09,7.54-17.56,30.3-32.4,55.24-25.53a5,5,0,0,0,1,.18"/><path d="M255.89,418.24a125,125,0,0,0,14.29-35.65c2.36-9.92.71-19.31-4-28.26-1.5-2.85-1.74-6,.69-8,1.77-1.48,4.77-2.61,6.94-2.23,2,.34,4.2,2.55,5.27,4.52,7.84,14.55,8.08,29.76,3.15,45.21-4.67,14.6-11.49,28.25-19.5,41.32-3.49,5.7-9.6,5.87-13,.25-10-16.49-18.92-33.47-22.15-52.73a53,53,0,0,1,6-35c2.1-3.86,6.09-5.06,9.69-3.28,3.23,1.61,5,5.55,3.21,8.85-8.27,14.93-5.83,29.78.06,44.55,2.64,6.58,5.86,12.94,9.33,20.5"/><path d="M181.05,324.37c8.24-4,18.07-8.88,28-13.41,2.75-1.26,3.17-2.95,3.27-5.7.64-20.63-1.41-40.92-9-60.68-1.53-4-2.4-8.29-3.63-12.43-.39-1.25-1-2.45-1.6-4-11.39,10.43-19.49,22.58-19.74,37.72-.31,19.53,1.64,39.2,2.62,58.51m145.18-93.64c-1.5,5.9-2.44,11-4.06,15.78-6.67,19.65-8.39,40-6.53,60.87.14,1.72.72,4.32,1.91,5,10.44,5.68,21.08,11,33.07,17.17-1.1-22.13-1.24-43.16-3.5-64-1.47-13.66-9.82-24.87-20.89-34.74m-28.53,46.8a43,43,0,0,1-6,1.34c-12.4.78-24.78,1.72-37.17,2.05-4.57.12-7.66-3.06-8.29-7.83a7.59,7.59,0,0,1,5.24-8.73c2-.76,4.56-.52,6.85-.4a106.57,106.57,0,0,0,38.86-4.69c3-.95,4.54-2.49,5.2-5.67,1.2-5.86,3-11.6,4.43-17.42,13.4-52.71,6.84-103.64-20.33-152.57A171.9,171.9,0,0,0,257.83,45c-7.44,10.61-15.27,20.21-21.49,30.83-28.35,48.54-34.75,101-18.42,156.48,7.06,24,13.53,47.77,11.77,72.69,0,.37-.13.82.05,1.06,1,1.41,1.91,3.55,3.26,4a102.54,102.54,0,0,0,62.12,1.37c1.26-.37,2.94-2.14,2.94-3.33.08-10-.18-19.93-.36-30.57M186.87,214.09c6.31-3.42,7.18-10.13,6.31-19.05-5.24-54.54,8.15-103.54,40.16-146.53A267.15,267.15,0,0,1,251,27.84c4.88-5.31,9.43-5.14,14.64.25,45.56,47.54,67.28,103.6,64.64,167.78C329.87,206.1,332,213,339.78,220c18,16.47,26.48,37.25,26.67,61.23.18,19.82.78,39.65,1.16,59.45.18,10.64-5.45,14-15.09,9-13.85-7.09-27.63-14.3-41.58-21.17a12.1,12.1,0,0,0-7.85-.85c-25.89,7.55-51.81,7-77.95-1.84a10.21,10.21,0,0,0-6.88.4c-14,6.49-27.78,13.29-41.66,19.94-8.78,4.2-14.77.45-15-9.44-.49-21-1-42.14-1.26-63.2-.34-23.42,8.61-42.62,26.53-59.47"/><path d="M255.29,151.29c3.89,3.92,4.14,8.72.66,12.31s-8.66,3.48-12.29-.22-3.78-9.28-.63-12.54c3.46-3.58,8.46-3.38,12.26.45"/><path d="M256.11,187.76c3.83,3.92,4,8.76.5,12.29s-8.72,3.36-12.29-.4-3.68-9.32-.47-12.53c3.54-3.53,8.47-3.26,12.26.64"/></svg>