<svg id="Layer_1" data-name="Layer 1" xmlns="http://www.w3.org/2000/svg" viewBox="0 0 512 512"><path d="M274.65,479a6.22,6.22,0,0,1,5.56-7.08h0a6.34,6.34,0,0,1,7,5.56h0a6.27,6.27,0,0,1-5.56,7h0a1.51,1.51,0,0,1-.77.14h0A6.19,6.19,0,0,1,274.65,479Z"/><path d="M299.19,475.49a6.35,6.35,0,0,1,4.8-7.58h0a6.31,6.31,0,0,1,7.6,4.68h0a6.38,6.38,0,0,1-4.81,7.59h0a5.41,5.41,0,0,1-1.39.12h0A6.33,6.33,0,0,1,299.19,475.49Z"/><path d="M323.35,469.17a6.19,6.19,0,0,1,3.79-8.09h0a6.3,6.3,0,0,1,8.11,3.79h0a6.36,6.36,0,0,1-3.93,8.1h0a5.82,5.82,0,0,1-2,.37h0A6.27,6.27,0,0,1,323.35,469.17Z"/><path d="M346.5,460.07a6.33,6.33,0,0,1,2.9-8.48h0a6.31,6.31,0,0,1,8.49,2.9h0a6.22,6.22,0,0,1-2.92,8.35h0a5.76,5.76,0,0,1-2.78.77h0A6.26,6.26,0,0,1,346.5,460.07Z"/><path d="M368.51,448.43a6.24,6.24,0,0,1,1.89-8.73h0a6.21,6.21,0,0,1,8.74,1.77h0a6.47,6.47,0,0,1-1.91,8.86h0a6.69,6.69,0,0,1-3.41,1h0A6.38,6.38,0,0,1,368.51,448.43Z"/><path d="M389,434.38a6.38,6.38,0,0,1,.87-9h0a6.54,6.54,0,0,1,9,.89h0a6.41,6.41,0,0,1-1,9h0a6.41,6.41,0,0,1-3.91,1.4h0A6.27,6.27,0,0,1,389,434.38Z"/><path d="M407.84,418.07a6.4,6.4,0,0,1-.12-9h0a6.39,6.39,0,0,1,9-.12h0a6.49,6.49,0,0,1,.13,9h0a6.39,6.39,0,0,1-4.55,1.9h0A6.35,6.35,0,0,1,407.84,418.07Z"/><path d="M424.67,399.73a6.36,6.36,0,0,1-1-8.85h0a6.36,6.36,0,0,1,8.85-1.14h0a6.54,6.54,0,0,1,1.14,9h-.12a6.41,6.41,0,0,1-4.93,2.4h0A6.49,6.49,0,0,1,424.67,399.73Z"/><path d="M439.47,379.75a6.37,6.37,0,0,1-2.15-8.74h0a6.39,6.39,0,0,1,8.73-2h0a6.24,6.24,0,0,1,2.15,8.61h0a6.3,6.3,0,0,1-5.43,3h0A6.14,6.14,0,0,1,439.47,379.75Z"/><path d="M451.87,358.24a6.49,6.49,0,0,1-3-8.47h0a6.37,6.37,0,0,1,8.48-3h0a6.47,6.47,0,0,1,3,8.47h0a6.4,6.4,0,0,1-5.69,3.55h0A6.81,6.81,0,0,1,451.87,358.24Z"/><path d="M461.86,335.34a6.27,6.27,0,0,1-3.92-8h0a6.26,6.26,0,0,1,8-3.92h0a6.24,6.24,0,0,1,4.06,8h0a6.5,6.5,0,0,1-6.07,4.3h0A6.11,6.11,0,0,1,461.86,335.34Z"/><path d="M469.33,311.69a6.35,6.35,0,0,1-4.81-7.59h0a6.24,6.24,0,0,1,7.46-4.81h0a6.3,6.3,0,0,1,4.81,7.46h0a6.34,6.34,0,0,1-6.2,5.07h0C470.21,311.82,469.71,311.69,469.33,311.69Z"/><path d="M474,287.15a6.29,6.29,0,0,1-5.57-7h0a6.28,6.28,0,0,1,6.95-5.57h0a6.37,6.37,0,0,1,5.57,7h0a6.31,6.31,0,0,1-6.32,5.69h0A1.4,1.4,0,0,1,474,287.15Z"/><path d="M468.44,232h0a6.22,6.22,0,0,1,5.57-7h0a6.25,6.25,0,0,1,6.95,5.57h0a6.35,6.35,0,0,1-5.57,6.95h-.75A6.2,6.2,0,0,1,468.44,232Z"/><path d="M464.52,208.09h0a6.26,6.26,0,0,1,4.81-7.59h0a6.24,6.24,0,0,1,7.46,4.81h0a6.36,6.36,0,0,1-4.81,7.58h0a4.19,4.19,0,0,1-1.26.13h0A6.36,6.36,0,0,1,464.52,208.09Z"/><path d="M457.94,184.82h0a6.37,6.37,0,0,1,3.92-8.11h0a6.43,6.43,0,0,1,8.1,3.93h0a6.36,6.36,0,0,1-4.06,8.09h0a5.07,5.07,0,0,1-2,.39h0A6.24,6.24,0,0,1,457.94,184.82Z"/><path d="M448.83,162.42a6.33,6.33,0,0,1,3-8.47h0a6.36,6.36,0,0,1,8.47,3h0a6.3,6.3,0,0,1-3,8.35h0a5.36,5.36,0,0,1-2.78.63h0A6.38,6.38,0,0,1,448.83,162.42Z"/><path d="M437.32,141.05a6.5,6.5,0,0,1,2-8.73h0a6.37,6.37,0,0,1,8.74,2.15h0a6.35,6.35,0,0,1-2,8.73h0a6.14,6.14,0,0,1-3.28.89h0A6.28,6.28,0,0,1,437.32,141.05Z"/><path d="M423.53,121.19a6.28,6.28,0,0,1,1.14-8.86h0a6.28,6.28,0,0,1,8.86,1.14h0a6.29,6.29,0,0,1-1.14,8.85h0a6.1,6.1,0,0,1-3.79,1.4h0A6.43,6.43,0,0,1,423.53,121.19Z"/><path d="M407.72,103a6.12,6.12,0,0,1,0-8.86h0a6.37,6.37,0,0,1,9,0h0a6.37,6.37,0,0,1-.12,9h0a6,6,0,0,1-4.44,1.77h0A5.94,5.94,0,0,1,407.72,103Z"/><path d="M389.88,86.66a6.28,6.28,0,0,1-1-8.86h0a6.29,6.29,0,0,1,9-.89h0a6.37,6.37,0,0,1,.89,8.86h0A6.28,6.28,0,0,1,393.81,88h0A5.83,5.83,0,0,1,389.88,86.66Z"/><path d="M370.28,72.49a6.35,6.35,0,0,1-1.9-8.73h0a6.22,6.22,0,0,1,8.73-1.89h0a6.22,6.22,0,0,1,1.9,8.72h0a6.26,6.26,0,0,1-5.31,2.91h0A7.09,7.09,0,0,1,370.28,72.49Z"/><path d="M349.28,60.6a6.4,6.4,0,0,1-2.9-8.48h0a6.46,6.46,0,0,1,8.59-2.9h0a6.37,6.37,0,0,1,2.78,8.47h0a6.22,6.22,0,0,1-5.69,3.54h0A7.42,7.42,0,0,1,349.28,60.6Z"/><path d="M327.14,51.11A6.3,6.3,0,0,1,323.23,43h0a6.33,6.33,0,0,1,8.09-3.8h0a6.24,6.24,0,0,1,3.79,8.1h0a6.27,6.27,0,0,1-5.94,4.17h0A5.61,5.61,0,0,1,327.14,51.11Z"/><path d="M303.87,44.28h0a6.29,6.29,0,0,1-4.68-7.59h0A6.18,6.18,0,0,1,306.78,32h0a6.18,6.18,0,0,1,4.67,7.59h0a6.19,6.19,0,0,1-6.06,4.8h0A6.5,6.5,0,0,1,303.87,44.28Z"/><path d="M280.09,40.23a6.41,6.41,0,0,1-5.57-7.08h0a6.42,6.42,0,0,1,7.09-5.57h0a6.4,6.4,0,0,1,5.56,7.09h0a6.4,6.4,0,0,1-6.33,5.56h-.75Z"/><path d="M249.65,478.89a6.22,6.22,0,0,1,5.56-7.08h0a6.34,6.34,0,0,1,7,5.56h0a6.27,6.27,0,0,1-5.56,6.95h0a1.51,1.51,0,0,1-.77.14h0A6.19,6.19,0,0,1,249.65,478.89Z"/><path d="M255.09,40.08A6.41,6.41,0,0,1,249.52,33h0a6.42,6.42,0,0,1,7.09-5.57h0a6.4,6.4,0,0,1,5.56,7.09h0a6.4,6.4,0,0,1-6.33,5.56h-.75Z"/><path d="M36.71,237.56A6.45,6.45,0,0,1,31,230.61h0a6.48,6.48,0,0,1,7.09-5.7h0A6.41,6.41,0,0,1,43.67,232h0a6.41,6.41,0,0,1-6.33,5.57h-.63ZM40,212.89a6.37,6.37,0,0,1-4.81-7.58h0a6.38,6.38,0,0,1,7.6-4.81h0a6.38,6.38,0,0,1,4.81,7.59h0A6.36,6.36,0,0,1,41.39,213h0A5.49,5.49,0,0,1,40,212.89Zm6.08-24.16a6.26,6.26,0,0,1-3.93-8v-.12a6.38,6.38,0,0,1,8.1-3.93h0a6.43,6.43,0,0,1,3.92,8.11h0a6.51,6.51,0,0,1-6.07,4.3h0A6.09,6.09,0,0,1,46.08,188.73Zm8.72-23.39a6.19,6.19,0,0,1-3-8.35h0a6.23,6.23,0,0,1,8.35-3h0a6.37,6.37,0,0,1,3,8.47h0A6.11,6.11,0,0,1,57.47,166h0A5.24,5.24,0,0,1,54.8,165.34ZM65.94,143.2a6.31,6.31,0,0,1-2-8.73h0a6.45,6.45,0,0,1,8.72-2h0a6.31,6.31,0,0,1,2,8.73h0a6.23,6.23,0,0,1-5.31,2.92h0A6.9,6.9,0,0,1,65.94,143.2ZM79.6,122.32a6.26,6.26,0,0,1-1.15-8.85h0a6.25,6.25,0,0,1,8.86-1h0a6.24,6.24,0,0,1,1.14,8.84h0a6.68,6.68,0,0,1-5.06,2.41h0A5.61,5.61,0,0,1,79.6,122.32ZM95.41,103.1a6.23,6.23,0,0,1-.13-8.86h0a6.37,6.37,0,0,1,9-.12h0a6.38,6.38,0,0,1,.13,9h0A6.44,6.44,0,0,1,99.84,105h0A6.14,6.14,0,0,1,95.41,103.1Zm-.13-8.86Zm18-8.35a6.52,6.52,0,0,1,.89-9h0a6.53,6.53,0,0,1,9,.89h0a6.52,6.52,0,0,1-.89,9h0a7.14,7.14,0,0,1-4,1.39h0A6.49,6.49,0,0,1,113.24,85.89ZM133,70.59a6.33,6.33,0,0,1,1.89-8.72h0a6.33,6.33,0,0,1,8.73,1.89h0a6.33,6.33,0,0,1-1.9,8.73h0a5.72,5.72,0,0,1-3.41,1h0A6.08,6.08,0,0,1,133,70.59Zm21.25-12.9a6.36,6.36,0,0,1,2.91-8.47h0a6.37,6.37,0,0,1,8.48,2.9h0a6.35,6.35,0,0,1-2.92,8.48h0a5.34,5.34,0,0,1-2.78.63h0A6.37,6.37,0,0,1,154.23,57.69Zm22.64-10.37a6.39,6.39,0,0,1,3.79-8.1h0a6.34,6.34,0,0,1,8.1,3.8h0a6.33,6.33,0,0,1-3.8,8.09h0a6.17,6.17,0,0,1-2.15.38h0A6.11,6.11,0,0,1,176.87,47.32Zm23.65-7.72A6.28,6.28,0,0,1,205.21,32h0a6.17,6.17,0,0,1,7.58,4.68h0a6.19,6.19,0,0,1-4.68,7.59h0a5.94,5.94,0,0,1-1.38.12h0A6.35,6.35,0,0,1,200.52,39.6Zm24.41-4.93a6.33,6.33,0,0,1,5.58-7.09h0a6.38,6.38,0,0,1,7,5.69h0a6.27,6.27,0,0,1-5.57,7h-.75A6.29,6.29,0,0,1,224.93,34.67Z"/><path d="M230.51,484.61a6.49,6.49,0,0,1-5.58-7.09h0a6.37,6.37,0,0,1,7-5.56h0a6.39,6.39,0,0,1,5.69,7.08h0a6.5,6.5,0,0,1-6.32,5.57h-.75Z"/><path d="M205.33,480.18a6.38,6.38,0,0,1-4.81-7.59h0a6.19,6.19,0,0,1,7.59-4.68h0a6.34,6.34,0,0,1,4.8,7.58h0a6.45,6.45,0,0,1-6.18,4.95h0A4.78,4.78,0,0,1,205.33,480.18Z"/><path d="M180.66,473a6.4,6.4,0,0,1-3.79-8.1h0a6.23,6.23,0,0,1,8.09-3.79h0a6.4,6.4,0,0,1,3.93,8.09h0a6.57,6.57,0,0,1-6.08,4.17h0A7.14,7.14,0,0,1,180.66,473Z"/><path d="M157.14,463a6.23,6.23,0,0,1-2.79-8.49h0a6.32,6.32,0,0,1,8.47-2.9h0a6.44,6.44,0,0,1,2.8,8.48h0a6.15,6.15,0,0,1-5.7,3.54h0A7.53,7.53,0,0,1,157.14,463Z"/><path d="M134.87,450.33A6.45,6.45,0,0,1,133,441.6h0a6.32,6.32,0,0,1,8.72-1.9h.14a6.31,6.31,0,0,1,1.76,8.73h0a6.06,6.06,0,0,1-5.31,2.9h0A6,6,0,0,1,134.87,450.33Z"/><path d="M114.25,435.27h0a6.15,6.15,0,0,1-.88-8.85h0a6.13,6.13,0,0,1,8.85-.88h0a6.13,6.13,0,0,1,.89,8.84h0a6.3,6.3,0,0,1-4.93,2.29h0A5.73,5.73,0,0,1,114.25,435.27Z"/><path d="M95.41,418.07v-.13a6.22,6.22,0,0,1,.13-8.86h0a6.23,6.23,0,0,1,8.85.14h0v-.14h0a6.28,6.28,0,0,1-.13,9h0a5.91,5.91,0,0,1-4.42,1.9h0A5.92,5.92,0,0,1,95.41,418.07Z"/><path d="M78.59,398.72h0a6.36,6.36,0,0,1,1-8.86h0A6.27,6.27,0,0,1,88.45,391h.13a6.4,6.4,0,0,1-1.15,8.86h0a6.37,6.37,0,0,1-3.91,1.26h0A5.88,5.88,0,0,1,78.59,398.72Z"/><path d="M63.91,377.72A6.37,6.37,0,0,1,66.06,369h0a6.23,6.23,0,0,1,8.6,2.15h0a6.1,6.1,0,0,1-2,8.61h0a6.25,6.25,0,0,1-3.28,1h0A6.6,6.6,0,0,1,63.91,377.72Z"/><path d="M51.77,355.2a6.19,6.19,0,0,1,3-8.35h0a6.33,6.33,0,0,1,8.48,2.92h0a6.48,6.48,0,0,1-3,8.47h0a6.85,6.85,0,0,1-2.77.63h0A6.52,6.52,0,0,1,51.77,355.2Z"/><path d="M42.15,331.54a6.36,6.36,0,0,1,3.93-8.09h0a6.41,6.41,0,0,1,8.09,3.92h0a6.24,6.24,0,0,1-4,8h0a5.17,5.17,0,0,1-2,.38h0A6.28,6.28,0,0,1,42.15,331.54Z"/><path d="M35.19,306.88a6.3,6.3,0,0,1,4.94-7.59h0a6.26,6.26,0,0,1,7.47,4.81h0a6.38,6.38,0,0,1-4.81,7.59h0c-.38,0-.89.13-1.27.13h0A6.52,6.52,0,0,1,35.19,306.88Z"/><path d="M31.15,281.58h0a6.27,6.27,0,0,1,5.56-7h0a6.35,6.35,0,0,1,7,5.57h0a6.47,6.47,0,0,1-5.56,7.08h-.77A6.18,6.18,0,0,1,31.15,281.58Z"/><path d="M474,262a6.29,6.29,0,0,1-5.57-6.95h0a6.28,6.28,0,0,1,6.95-5.57h0a6.35,6.35,0,0,1,5.57,6.95h0a6.32,6.32,0,0,1-6.32,5.7h0A1.3,1.3,0,0,1,474,262Z"/><path d="M31.15,256.38h0a6.26,6.26,0,0,1,5.56-6.95h0a6.34,6.34,0,0,1,7,5.57h0a6.48,6.48,0,0,1-5.56,7.08h-.77A6.19,6.19,0,0,1,31.15,256.38Z"/><path d="M241.26,135.6H183.39a5.9,5.9,0,1,1,0-11.79h57.87a5.9,5.9,0,1,1,0,11.79Z"/><path d="M252.09,179.42H222.47c-1.67,0-3-2.63-3-5.89s1.35-5.9,3-5.9h29.62c1.67,0,3,2.64,3,5.9S253.76,179.42,252.09,179.42Z"/><path d="M384.29,200l-56.45-58a16.25,16.25,0,0,0-6.87-4.23l-.27-.3v.23a15.77,15.77,0,0,0-4.48-.66H290.55V122.93c0-16.14-12.87-29.29-28.67-29.29H161.21c-15.81,0-28.67,13.15-28.67,29.29V282.8c0,16.15,12.86,29.29,28.67,29.29h28.15V376c0,20.42,16.25,37,36.23,37H352.78c20,0,36.22-16.6,36.22-37V211.67A16.72,16.72,0,0,0,384.29,200ZM161.21,300.29c-9.31,0-16.88-7.84-16.88-17.49V122.93c0-9.65,7.57-17.49,16.88-17.49H261.88c9.31,0,16.87,7.84,16.87,17.49v14.12H225.59c-20,0-36.23,16.6-36.23,37V300.29ZM374.1,376c0,12.19-9.56,22.12-21.32,22.12H225.59c-11.76,0-21.33-9.93-21.33-22.12V174.07c0-12.2,9.57-22.12,21.33-22.12l91.56.43,3.55,3.7v21.8a26.69,26.69,0,0,0,26.58,26.73h20l6.78,7.06ZM355.81,195.58H345.35a15.72,15.72,0,0,1-15.65-15.77V166.68Z"/><path d="M312.48,245.12H245.87a5.9,5.9,0,1,1,0-11.79h66.61a5.9,5.9,0,0,1,0,11.79Z"/><path d="M312.48,272.67H245.87a5.9,5.9,0,1,1,0-11.79h66.61a5.9,5.9,0,0,1,0,11.79Z"/><path d="M312.48,300.22H245.87a5.9,5.9,0,1,1,0-11.79h66.61a5.9,5.9,0,0,1,0,11.79Z"/><path d="M312.48,327.77H245.87a5.9,5.9,0,1,1,0-11.79h66.61a5.9,5.9,0,0,1,0,11.79Z"/></svg>