<svg id="Layer_1" data-name="Layer 1" xmlns="http://www.w3.org/2000/svg" viewBox="0 0 512 512"><path d="M98.27,264c11.25,3.91,24.8,8.44,38.15,13.44,3.69,1.36,5.63.19,8.25-2.24,19.55-18.41,36.32-39,47.51-64.12,2.3-5.11,5.41-9.83,8.09-14.77.79-1.5,1.36-3.14,2.21-5.16-20.07-.88-38.7,2.86-52.84,16.57-18.24,17.7-34.52,37.6-51.37,56.28M318,311.22c-6.8,4-12.32,7.83-18.24,10.78-24.2,12-44.49,29.11-62,50-1.45,1.72-3.31,4.64-2.82,6.34,4.4,14.82,9.29,29.52,14.67,46.2,19.33-21.38,38.53-40.88,55.65-62.18,11.2-13.93,13.82-31.92,12.7-51.17m-69.28,16.85c-3-1.86-5.11-2.82-6.8-4.32-12.12-10.68-24.39-21.19-36.1-32.28-4.31-4.09-4.23-9.86-.44-14.83,3.39-4.45,8.11-5.43,12.86-3.22,2.57,1.18,4.67,3.72,6.67,5.93A138.53,138.53,0,0,0,265,310.75c3.63,1.89,6.47,1.89,10-.43,6.5-4.29,13.41-7.95,20.1-12,60.79-36.21,101.56-89.13,121.52-159.15a223.79,223.79,0,0,0,9.12-61.82c-16.6,2.92-32.63,4.56-48.12,8.63-70.72,18.62-124.79,61-160.79,127.12-15.56,28.59-31.45,56.41-56,77.74-.35.33-.87.63-.92,1-.36,2.24-1.51,5-.66,6.67q19.22,38.2,55.93,58.35c1.5.82,4.67.74,5.76-.35,9.23-9.1,18.16-18.52,27.77-28.48M205,167.79c9,2.65,15.92-2.73,23.32-11.74C273.62,101,331,68.23,400,58.07c11.66-1.72,23.48-2.24,35.28-2.76,9.37-.41,13.41,3.94,13.25,13.68-1.75,85.64-33.29,157.22-94.71,213.88-9.8,9-14.12,17.31-13.49,30.94,1.45,31.73-9.86,58.63-31.73,80.89-18.05,18.4-35.72,37.22-53.58,55.79-9.61,10-17.86,7.86-22.17-5.57-6.23-19.26-12.29-38.56-18.82-57.71a15.62,15.62,0,0,0-6.44-8c-30.78-16.85-54.1-41.2-70.07-73.35a13.34,13.34,0,0,0-6.7-5.95C112,293,93,286.61,74.1,280c-11.93-4.21-14-13.17-5.13-22.48,18.9-19.82,37.85-39.68,56.94-59.34,21.22-21.87,47.1-31.32,79.08-30.37"/><path d="M87.36,412.62c-3.36-3.08-8-5.38-8.9-8.76-1-3.77.11-9.73,2.59-12.65,7.13-8.55,15.4-16,23.24-23.95,6.69-6.74,13.3-13.54,20.07-20.23,5.65-5.6,12.26-5.87,16.82-.93s4.15,11.77-1.5,17.56Q118.47,385.25,97,406.56c-2.33,2.27-5.57,3.55-9.67,6.06"/><path d="M158,407.48c-2.46,4.23-3.71,7.62-5.93,10-10.89,11.72-22,23.21-33.15,34.66-5.54,5.68-12.18,5.89-16.79.95-4.4-4.72-4.1-11.55,1-17,11.27-12,22.69-23.79,34.1-35.64,3.55-3.63,8.09-5.35,12.32-2.54,3.28,2.16,5.46,6.09,8.41,9.59"/><path d="M325.7,172.87c0,7.19-4.2,11.83-10.7,11.94s-11.17-4.75-11.12-11.5c.09-6.53,5.06-12,10.95-12.12,6.48-.11,10.9,4.67,10.87,11.68"/><path d="M292.94,207.2c-.08,7.12-4.37,11.74-10.84,11.77s-11.11-4.92-11-11.66c.14-6.53,5.19-12,11.09-12,6.5,0,10.78,4.77,10.7,11.85"/></svg>