<svg id="Layer_1" data-name="Layer 1" xmlns="http://www.w3.org/2000/svg" viewBox="0 0 512 512"><path d="M255.86,199c18.55-.06,33.59,15.35,33.67,34.51s-14.72,35-33.09,35.29-33.92-15.68-33.95-35S237.36,199,255.86,199m33.42,169.4a20,20,0,0,1-2.9,1.32,107.92,107.92,0,0,1-53.89,1.69c-9.79-2.23-9.76-2.33-9.78-13q0-14.47,0-28.94c0-4.39-2.44-6.8-6.41-7.29-3.62-.46-6.74,2.89-7.06,7.17-.13,1.66,0,3.33,0,5v29.34c-5.22-3.1-9.67-5.56-13.9-8.39-.91-.58-1.41-2.47-1.41-3.76-.09-15.8-.16-31.62,0-47.41.08-7.8,4-13,11.47-14.27,17.3-3,34.18-9.43,52.18-7,3.71.49,7.72-1.24,11.37-.6,12.69,2.19,25.32,4.88,37.91,7.59,7.34,1.57,11.33,6.56,11.4,14.39.15,15.8.08,31.6,0,47.4,0,1.28-.55,3.14-1.46,3.73-4.23,2.81-8.67,5.26-13.83,8.32v-6.47c0-9.14.09-18.3,0-27.44-.07-4.46-3-7.55-6.67-7.63s-6.54,3-6.81,7.43c-.12,1.82,0,3.67,0,5.48q0,16.71,0,33.34M249.2,425.78c-13.59,0-26.84.72-40-.19-13.86-1-24.77,12.18-19.94,26.57,3.3,9.79-3.19,20.63-12.68,23.45-10,3-20.49-2.47-23-12.91-1.06-4.41-.43-9.5.36-14.11,2-11.68-6.13-22.68-17.54-22.78-12.75-.1-25.51,0-38.26,0-1.54,0-3.07-.15-4.92-.23,0-10.34-.05-20.29,0-30.25,0-6.21,2.19-7.41,8.18-6.48,5.11.81,10.62,1.45,15.56.32,17.6-4,28.36-22.2,24.3-40.08-4.24-18.77-21.26-29.82-39.26-25.46-6.81,1.64-8.8,0-8.8-7.21q0-24.47,0-48.91c0-1.43.18-2.84.28-4.19h35.05c10.24,73.57,50.24,115.21,120.58,125.64ZM382.76,248.92c-4.62-69.68-57.28-121.39-119.76-125.2V86.29c14,0,27.68,0,41.36,0a21.71,21.71,0,0,0,6.13-.71c10.63-3.19,15.26-12.83,12.18-25.22-1.85-7.47,0-13.95,5.14-19.15s11.4-7,18.49-4.79A19.16,19.16,0,0,1,358.72,60c-4.29,14.68,6.12,27.61,20.2,26.46,11.57-1,23.27-.21,34.91-.18,1.54,0,3.08.14,4.91.24,0,10.16,0,20,0,29.74,0,6.67-2.08,7.91-8.21,7-5.26-.8-10.93-1.38-16-.16-17.62,4.25-27.92,22.4-23.71,40.45,4.3,18.39,21.3,29.2,39.2,24.9,6.74-1.61,8.72,0,8.74,7.33q0,24.19,0,48.4v4.75Zm-289.48.14c0-15,0-29.26,0-43.55a23.9,23.9,0,0,0-.68-6.39c-3.12-11.1-12.26-15.79-24.25-12.61-10.22,2.72-20.25-3.36-23-13.94s2.76-20.88,13.07-23.46c4-1,8.5-.43,12.61.39,11.79,2.33,22.21-6.18,22.27-18.72.07-11.64,0-23.3,0-34.94V86.29c9.88,0,19.11,0,28.35,0,7,0,8.32,1.95,6.82,9.08-2.72,12.88.24,24.2,9.67,33.09,9.09,8.6,19.86,11,31.58,7.15,16.15-5.26,25.49-22.62,21.68-39.81-1.72-7.74-.34-9.51,7.39-9.51,8,0,15.95,0,23.91,0H249V124c-32.19,2.43-59.8,15-82.46,38.61s-34.82,52.68-37.18,86.3c-1.15.06-2.08.16-3,.16-10.83,0-21.63,0-33.08,0M418.74,425.78c-10.12,0-19.65.06-29.19,0-6,0-7.09-2.29-6.25-8.55.75-5.48,1.34-11.4.17-16.69-4.08-18.38-21.45-29.13-38.76-24.75-17.64,4.46-28,22.23-23.89,40.89,1.54,7,0,9.11-7,9.11q-23.21,0-46.41,0H263V388.25c66.61-4.85,116.14-59.65,119.86-124.92h35.89c0,14.58,0,28.87,0,43.15a24.2,24.2,0,0,0,.68,6.38c3.08,11.1,12.29,15.93,24.18,12.7,7.16-1.95,13.35,0,18.37,5.34a19,19,0,0,1,4.6,19.28c-2.85,9.87-12.84,16.08-22.65,13-14.18-4.48-26.42,6.45-25.41,21,.93,13.56.2,27.24.2,41.58M287.27,271.24c24-25.46,17.05-56.76,2.3-72.08-16.72-17.37-43.37-19.56-62-4.66a47.75,47.75,0,0,0-17.94,30.76c-2.75,17.75,2.62,32.9,15.45,45.87-8.43,1.75-15.91,3.18-23.33,4.87-12.88,2.91-21.31,13.79-21.37,27.4,0,10.66,0,21.3,0,32v7.74c-31.48-28.15-47.63-79.61-30.47-128.07,17.52-49.49,64.26-80.61,115.14-76.78,49.28,3.72,90.58,41.54,101.6,93.43,9.43,44.41-9.13,89.92-35.05,110.9,0-12-.52-23.84.13-35.56,1-17-9.53-30.05-26.07-32.08-6.06-.73-12-2.39-18.41-3.69M248.42,72.31c-17.06,0-34.17.68-51.19-.22-12.67-.66-23.76,11.3-19.41,26.31a19,19,0,0,1-13.2,23.94c-14.23,3.86-26.47-9.18-22.77-24.28,3-12.19-1.84-22-12.44-25.14a12.26,12.26,0,0,0-3.28-.56c-13.08,0-26.16-.1-39.23,0-4.7,0-7,2.74-7,8.06,0,15.8,0,31.6,0,47.42,0,7-2,8.64-8.47,7.09-18.24-4.39-35.13,6.35-39.5,25.1-4.18,17.95,6.29,36.11,23.93,40.31,4.94,1.17,10.46.71,15.55-.12,6.59-1.06,8.49,0,8.49,7.06,0,36.43.53,72.9-.25,109.31-.3,14.41,11.12,25.49,25.49,21,10.52-3.28,20.27,3.39,22.88,14.52,2.44,10.46-3.8,21.07-14.25,23.26-3.43.71-7.31.14-10.8-.7-12.27-3-23,5.46-23,18.6-.08,12.47,0,25,0,37.43,0,6.73,2.15,9,8.49,9q22.25,0,44.49,0c7,0,8.56,2.07,7,9.11-4.12,18.66,6.25,36.42,23.89,40.9,17.22,4.37,34.52-6.48,38.65-24.92,1.15-5.15.78-10.91,0-16.22-1-6.84.1-8.85,6.83-8.85,35.25,0,70.5-.43,105.74.22,12.12.22,23.31-10.89,19.34-25.58-2.47-9.19.43-17.17,7.19-22a17.79,17.79,0,0,1,21.48.15c6.66,4.87,9.22,13,7,22.07-3.46,14,4.64,25,18.48,25.07q17.46,0,34.93,0c6.66,0,8.69-2.17,8.69-9.3q0-23,0-45.93c0-7.34,2-9,8.69-7.38,17.92,4.3,34.94-6.49,39.23-24.86,4.21-18.08-6.08-36.2-23.68-40.47-5.08-1.22-10.75-.64-16,.15-6.17.93-8.24-.29-8.24-7,0-36.62-.5-73.23.25-109.83.28-13.78-10.89-25.17-25.31-20.74-10.62,3.26-20.39-3.25-23-14.28-2.5-10.54,3.54-21.09,14-23.39,3.55-.78,7.6-.17,11.24.69,12,2.85,22.68-5.63,22.76-18.46.09-12.64,0-25.3,0-37.94,0-6.39-2.21-8.71-8.29-8.72-15,0-30,0-45,0-6.68,0-8.24-2.1-6.74-8.89,4.25-19.19-6.2-36.72-24.58-41.27-16.9-4.21-34.31,7.27-38.14,25.8-1.07,5.16-.39,10.88.3,16.23.77,5.9-.46,8.09-6.24,8.12-18.36,0-36.7,0-55,0"/></svg>