<svg id="Layer_1" data-name="Layer 1" xmlns="http://www.w3.org/2000/svg" viewBox="0 0 512 512"><path d="M481,213.81c-1.05,4.68-1.91,9.42-3.2,14a85.51,85.51,0,0,1-17.31,32.21,13.54,13.54,0,0,0-3.05,6.52c-5.24,40-35,70.06-75.15,75.65a82.75,82.75,0,0,1-48.22-7.6c-3.37-1.62-5.4-1.12-8.06,1.22-38.62,34-96,35.52-136,3.57-5.91-4.73-11.08-10.36-16.26-15.25-7.63,4.19-15,9.07-23,12.43-19,8-38.61,8.52-58.36,2.68-6-1.78-8.77-5.38-8-10.26a8.48,8.48,0,0,1,10.39-7.42c5.29,1,10.52,2.53,15.86,3.13,20.83,2.31,38.94-4,54.48-17.91a38.69,38.69,0,0,1,5.31-4.56c4.27-2.62,8.35-1.16,12.24,3.26,5.87,6.68,11.4,13.87,18.2,19.49C235,353.25,286.45,350.5,318,319.2c1.25-1.24,2.45-2.53,3.76-3.7,3.89-3.46,6.8-3.43,12.09-1.13,7.72,3.36,15.38,7.42,23.49,9.19,35.71,7.79,70.61-13.67,80.47-48.95,1.25-4.47,1.19-9.3,2.42-13.77,1-3.52,2.3-7.36,4.66-10,23-25.64,25-60.61,3.92-87.56-14.38-18.37-33.72-27-57.27-25.29a114,114,0,0,0-13.82,2.14c-7.64,1.54-11.56-.67-13.4-8.51A99.47,99.47,0,0,0,347.12,94c-24.18-32-56.38-48.21-96.57-44.59-42.8,3.86-73,26.71-90.61,65.92-3.64,8.08-7.28,9.53-15.62,6.31-18.14-7-34.74-4-48.76,9.28-13,12.24-16.82,27.65-12.57,45,.76,3.12,1.7,6.19,2.5,9.3,1.54,6,.69,8.67-4.71,12.3-8.37,5.63-15.6,12.31-21,20.91-11.73,18.74-14.11,38.65-7.51,59.69a49.79,49.79,0,0,1,1.5,5c1,4.83-1.45,9.23-5.62,10.5-4.41,1.34-9.19-.5-10.84-5.07-2.18-6-4.33-12.2-5.24-18.5-4.25-29.58,4-55.24,25.22-76.49,3.07-3.08,7.93-5.37,9.16-9,1.17-3.43-1.55-8.08-2.16-12.25-5-34,18.88-66,52.69-71.17a68.56,68.56,0,0,1,28.31,1.91c3.56-5.9,6.76-12,10.65-17.55,20.93-30,49.72-47.56,85.72-53.49,2.13-.35,4.26-.72,6.38-1.09h22.86a18.85,18.85,0,0,0,2.87.86q71,10,101,75.14c2.11,4.58,3.73,9.39,5.59,14.11,3.35-.42,6.38-1,9.43-1.16,42.18-2.6,78.25,23.72,88.85,64.83.91,3.5,1.61,7.07,2.4,10.6Z"/><path d="M188.28,207A33.39,33.39,0,1,1,155,173.39,33.36,33.36,0,0,1,188.28,207Zm-17.59-.25A16.12,16.12,0,0,0,155,191c-8.5,0-16,7.61-15.81,16.05s7.65,15.65,16,15.49A16.15,16.15,0,0,0,170.69,206.71Z"/><path d="M357,173.39a33.39,33.39,0,1,1-33.36,33.48A33.5,33.5,0,0,1,357,173.39Zm-.19,49.16c8.3.15,15.7-7.05,15.94-15.5.23-8.27-6.95-15.75-15.38-16s-16.08,7.12-16.14,15.7A16.16,16.16,0,0,0,356.82,222.55Z"/><path d="M256.31,173.39a33.39,33.39,0,1,1-33.74,33.14A33.4,33.4,0,0,1,256.31,173.39Zm15.42,33.28A16.17,16.17,0,0,0,256,191c-8.53,0-16,7.64-15.78,16.08s7.68,15.63,16,15.46S271.82,215,271.73,206.67Z"/><path d="M346.37,416.25a29.78,29.78,0,0,1-29.86-29.73c-.06-16.6,13.65-30.38,30-30.17s29.88,13.9,29.81,30.12A30.12,30.12,0,0,1,346.37,416.25Zm-.21-17.78a12.08,12.08,0,1,0,.32-24.15,12.08,12.08,0,1,0-.32,24.15Z"/><path d="M254.38,65.76c4.5-.22,8.75.68,10.24,5.15a12.23,12.23,0,0,1-.9,8.88c-1.11,2-4.43,3.55-6.89,3.73-23.89,1.76-42.94,12-57.2,31.34-4.95,6.72-13.63,6-15.8-1.33a11.21,11.21,0,0,1,1.3-8.51c13.61-19.51,32.13-31.95,55.43-37C245.11,67,249.77,66.49,254.38,65.76Z"/><path d="M294.82,413.38a22.85,22.85,0,1,1-22.89,23A23.17,23.17,0,0,1,294.82,413.38Zm-5.55,21.78,0,2c1.85,1.4,3.57,3.72,5.57,4,3,.41,5.16-1.69,5.12-5.09,0-3.22-2.26-5.14-5-4.78C292.93,431.6,291.16,433.82,289.27,435.16Z"/><path d="M56.22,313a8.91,8.91,0,0,1,9-8.35A9.45,9.45,0,0,1,74,314.3a9.2,9.2,0,0,1-9.06,8.37A9.44,9.44,0,0,1,56.22,313Z"/><path d="M255.83,481a8.77,8.77,0,0,1-8.64-9,8.78,8.78,0,1,1,8.64,9Z"/><path d="M298.39,80.55a8.64,8.64,0,0,1-8.59,8.71,8.87,8.87,0,1,1,8.59-8.71Z"/></svg>