<svg id="Layer_1" data-name="Layer 1" xmlns="http://www.w3.org/2000/svg" viewBox="0 0 512 512"><path d="M436.18,481.05c-12.68-2.5-21.66-10.58-30.41-19.43-27.27-27.61-54.86-54.91-82.18-82.46-2.59-2.62-4.33-2.78-7.33-.89a180.9,180.9,0,0,1-58.18,23.53,183,183,0,0,1-64.52,2.51c-28.8-4-55.47-13.77-79.52-30.23-40.88-28-67.61-66-78.42-114.36C14.32,164.34,68.44,70.07,161.4,39.94a181.74,181.74,0,0,1,94.39-5q66,13.7,108.68,66.05c.82,1,1.71,2,2.5,2.88l13-12.77c-5-9.86-5.55-19.86,0-29.66,6.06-10.64,15.59-15.89,27.65-15.21,12.25.68,21.2,7.08,25.91,18.58,1.22,3,2.67,3.84,5.74,3.83,13.91-.07,27.81.11,41.71.2V83.77c-14.2,0-28.39,0-42.59-.08-2.33,0-3.53.51-4.48,2.93-6.61,16.82-23.86,23.72-40.7,16.61a4.22,4.22,0,0,0-3.68.33c-4.6,4.24-9,8.73-13.2,12.91,39.84,68.32,39.83,136.09-.2,204.53a44.39,44.39,0,0,1,3.51,2.92c27.13,27.1,54.14,54.32,81.41,81.28,8.82,8.72,17.11,17.57,19.93,30.15v12.3c-2.72,10.19-6.87,19.74-16.14,25.48-5.55,3.44-12.06,5.33-18.13,7.92ZM390.81,218.37A172.23,172.23,0,0,0,214.91,45.9C122.42,47.47,44.66,123,46,221.31c1.23,92.68,77.16,171,175.84,169.37C314.69,389.15,390.63,313.47,390.81,218.37Zm8.46,146.73-34.78,34.26a43.57,43.57,0,0,1,3.57,2.89q20.06,20,40.06,40c5.38,5.38,10.74,10.79,16.15,16.13,5.61,5.54,12.32,8.47,20.25,7.42,9.61-1.27,16.51-6.46,19.94-15.65,3.58-9.61,1.43-18.32-5.61-25.45C439,404.63,419,384.76,399.27,365.1Zm-46.16,21.3L386.48,353l-17.54-17.52-33.4,33.3ZM405.83,90.88A14.82,14.82,0,1,0,391.28,76,14.57,14.57,0,0,0,405.83,90.88Z"/><path d="M218.7,61c87.68,1,157.36,70,157.31,157.71C376,307,305.84,376.07,218.55,376,130.34,375.89,61.2,305.8,61.25,218.5,61.29,130.47,131.44,61.73,218.7,61ZM343,149.82c-5.17,5.21-10,9.89-14.53,14.82-.71.77-.59,2.91-.09,4.09,5,11.72,2.67,24.94-6.13,33.66a29.6,29.6,0,0,1-33.23,6c-2.45-1.11-3.78-.81-5.59,1q-22,22.15-44.12,44.11c-1.74,1.73-2.08,3-.94,5.29a26.18,26.18,0,0,1,2.17,17.95c-2.79,12.37-10.37,20.6-22.8,23.43-11.43,2.6-21.58-.58-29.26-9.59-8.14-9.55-9.56-20.44-4.53-31.94,1.05-2.4.49-3.61-1.14-5.23q-14.7-14.52-29.2-29.22c-1.71-1.74-3-1.91-5.25-.89-16,7.14-33.64-.19-40-16.51-.86-2.19-1.78-3.26-4.34-3.2-7.76.18-15.53.2-23.28,0-3.19-.08-3.86,1.25-4,4.1-1.25,21.91,1.46,43.22,9.78,63.61,13.29,32.55,35.47,57.24,66.65,73.49C181,359.34,210.63,364,241.62,358.91c36.87-6,66.89-24.11,89.68-53.51,19.59-25.27,29.35-54.23,29.49-86.34C360.9,194.72,355,172,343,149.82ZM80.14,188.42c8.38,0,16.71.1,25-.13,1,0,2.53-1.6,3-2.78,6.5-16.11,23.93-23.69,39.69-17.14a29.94,29.94,0,0,1,15.58,39.91c-1,2.25-.93,3.49.84,5.22Q179,228,193.48,242.7c1.83,1.85,3.25,2.15,5.67,1a26.66,26.66,0,0,1,23.32-.26c3.21,1.48,4.82.77,7.05-1.49q21.3-21.57,42.87-42.86c2-2,2.54-3.45,1.25-6.3a29.43,29.43,0,0,1,13.13-38c9.78-5.24,19.59-4.79,28.79,0l18.53-18.5C307.76,96.5,250.25,64.7,185,80.37,126.67,94.39,88.33,142.84,80.14,188.42ZM226.07,271a14.91,14.91,0,1,0-29.82.39,14.91,14.91,0,0,0,29.82-.39Zm-89.84-89.69a14.57,14.57,0,0,0-14.78,14.62,14.74,14.74,0,1,0,29.48.12A14.66,14.66,0,0,0,136.23,181.28Zm165.1-15a14.81,14.81,0,1,0,14.53,14.88A14.58,14.58,0,0,0,301.33,166.32Z"/></svg>