<svg id="Layer_1" data-name="Layer 1" xmlns="http://www.w3.org/2000/svg" viewBox="0 0 512 512"><path d="M255.42,317.16q-4,16-7.93,31.93-15.42,62.1-30.85,124.2c-1.78,7.14-4.91,8.94-12,6.86q-23.31-6.86-46.58-13.85c-6.59-2-8.14-4.84-6.48-11.56q21.84-88.41,43.67-176.83a23.36,23.36,0,0,0,.67-5.52c0-20.63.08-41.25-.07-61.88,0-1.86-.85-4.47-2.22-5.46C167.2,186,140.6,167.06,114,148.12c-.48-.34-1-.6-2.1-1.22-11.44,42-5.92,81.36,15.48,119l-12.75,7.73a146.43,146.43,0,0,1-15.93-34.8,163.48,163.48,0,0,1-1-97.2c1-3.26.52-5-2.31-6.92-7.51-5.06-14.8-10.44-22.16-15.72-5.87-4.2-6.48-7.75-2.27-13.77Q84.64,85.63,98.39,66.09c4.34-6.17,7.77-6.77,14-2.3q59.51,42.38,119,84.73a13.67,13.67,0,0,0,7.2,2.37c11.56.25,23.13.23,34.69,0a12.85,12.85,0,0,0,6.84-2.11q59-41.88,117.88-84c8.2-5.86,10.88-5.41,16.67,2.86q13,18.61,26.05,37.22c4.54,6.5,4,9.76-2.52,14.42-7,5-13.85,10.17-21,14.92-3.21,2.13-4.07,4-2.92,8,9.81,33.3,8.86,66.47-1.95,99.41a16.55,16.55,0,0,1-.94,1.86l-6.7-2.31-7.35-2.61c10.15-30.26,11.41-60.58,2.51-91.79-6.65,4.72-13,9.21-19.28,13.71Q350,182.35,319.23,204.2c-2.23,1.58-3.33,3.12-3.31,6,.14,20.93-.49,41.89.34,62.79.36,8.87,3.47,17.66,5.63,26.41q19.2,77.76,38.53,155.5c1.59,6.41,0,9.43-6.27,11.33q-23.7,7.17-47.45,14.1c-6.31,1.85-9.69-.2-11.32-6.76q-14.08-56.65-28.11-113.32-5.34-21.51-10.69-43ZM404.28,79.28c-1.67,1.13-3,2-4.21,2.86q-56.62,40.35-113.32,80.62a18.81,18.81,0,0,1-9.85,3.09q-21.07.51-42.18,0a17.88,17.88,0,0,1-9.4-3Q168.53,122.65,112,82.16c-1.34-1-2.75-1.84-4.3-2.88L86.51,109.59c1.14.88,1.84,1.46,2.59,2Q147.62,153.33,206.16,195c3.42,2.43,4.9,5.14,4.88,9.34-.14,23.59-.06,47.18-.1,70.77a23.42,23.42,0,0,1-.62,5.54q-18.25,73.9-36.61,147.79c-2,8.23-4,16.49-6,24.88l35.5,10.52c.5-1.86.93-3.35,1.31-4.84q19-76.59,38.06-153.18c3.09-12.4,3.16-12.39,15.95-12.33,6.35,0,8.18,1.42,9.74,7.7Q285.1,369,301.91,436.73c2.24,9,4.5,18,6.81,27.2l35.39-10.53a17,17,0,0,0-.24-2.22Q325.42,376.86,307,302.53c-2.24-9-5.39-18.16-5.7-27.33-.81-23.72-.22-47.48-.33-71.23a9.54,9.54,0,0,1,4.41-8.63q58.41-41.51,116.72-83.16c1.11-.79,2.13-1.71,3.34-2.7Z"/><path d="M256.29,31a52.24,52.24,0,0,1,52.2,52.44c0,29.43-23.44,52.61-53.06,52.55-28.81-.06-52-23.54-52-52.69S226.89,31,256.29,31Zm-.61,90c20.11.35,37.4-16.55,37.79-36.94s-16.6-37.78-37.17-38c-20.23-.26-37.51,16.63-37.8,36.93C218.2,103.41,235,120.61,255.68,121Z"/><path d="M358.81,319.07l-9.49-12,28.89-30,12.32,9C379.87,297.11,369.6,307.83,358.81,319.07Z"/><path d="M391.82,252.41l13.7,6.44c-2.93,5.46-5.69,10.59-8.73,16.23l-13-7.92Z"/><path d="M134.45,276.51c3.3,4.07,6.33,7.82,9.76,12.07-3.62,3.23-7.24,6.48-11.29,10.11l-10.75-13.22Z"/></svg>